<svg width="80" height="80" viewBox="0 0 80 80" fill="none" xmlns="http://www.w3.org/2000/svg">
<path d="M34.4742 8.71711C35.6423 5.0943 40.7281 5.09429 41.8962 8.7171L47.0551 24.718C47.5775 26.3381 49.0757 27.4351 50.7661 27.4351L67.4609 27.4351C71.2408 27.4351 72.8125 32.3095 69.7544 34.5485L56.2481 44.4376C54.8805 45.4389 54.3082 47.2138 54.8306 48.834L59.9896 64.8348C61.1576 68.4576 57.0431 71.4702 53.9851 69.2312L40.4787 59.3421C39.1111 58.3408 37.2593 58.3408 35.8917 59.3421L22.3853 69.2312C19.3273 71.4702 15.2127 68.4576 16.3808 64.8348L21.5398 48.834C22.0621 47.2138 21.4899 45.4389 20.1223 44.4376L6.61593 34.5485C3.55791 32.3095 5.12951 27.4351 8.90944 27.4351L25.6042 27.4351C27.2947 27.4351 28.7928 26.3381 29.3152 24.718L34.4742 8.71711Z" fill="#E8EAFA"/>
<circle cx="59" cy="58" r="16" fill="#9CA8EA"/>
<path fill-rule="evenodd" clip-rule="evenodd" d="M59 49C57.8954 49 57 49.8954 57 51V56H52C50.8954 56 50 56.8954 50 58C50 59.1046 50.8954 60 52 60H57V65C57 66.1046 57.8954 67 59 67C60.1046 67 61 66.1046 61 65V60H66C67.1046 60 68 59.1046 68 58C68 56.8954 67.1046 56 66 56H61V51C61 49.8954 60.1046 49 59 49Z" fill="#E8EAFA"/>
</svg>
