<svg width="600" height="248" viewBox="0 0 600 248" fill="none" xmlns="http://www.w3.org/2000/svg">
<path d="M156 16C147.163 16 140 23.1635 140 32V232C140 240.837 147.163 248 156 248H444C452.837 248 460 240.837 460 232V64C460 55.1635 452.837 48 444 48H308.889C302.828 48 297.288 44.576 294.578 39.1554L287.422 24.8446C284.712 19.424 279.172 16 273.111 16H156Z" fill="url(#paint0_linear_3044_8508)"/>
<rect x="320.5" y="0.5" width="279" height="63" rx="7.5" fill="white" stroke="#E8EAFA"/>
<circle cx="356" cy="32" r="20" fill="#E8EAFA"/>
<rect x="384" y="24" width="128" height="16" rx="4" fill="#E8EAFA"/>
<rect x="520" y="24" width="64" height="16" rx="4" fill="#E8EAFA"/>
<path d="M132.84 104.799C132.383 95.6601 139.67 88 148.82 88H451.18C460.33 88 467.617 95.6601 467.16 104.799L460.76 232.799C460.334 241.314 453.306 248 444.78 248H155.22C146.694 248 139.666 241.314 139.24 232.799L132.84 104.799Z" fill="#E8EAFA"/>
<mask id="mask0_3044_8508" style="mask-type:alpha" maskUnits="userSpaceOnUse" x="135" y="88" width="336" height="160">
<path d="M135.84 104.799C135.383 95.6601 142.67 88 151.82 88H454.18C463.33 88 470.617 95.6601 470.16 104.799L463.76 232.799C463.334 241.314 456.306 248 447.78 248H158.22C149.694 248 142.666 241.314 142.24 232.799L135.84 104.799Z" fill="#E8EAFA"/>
</mask>
<g mask="url(#mask0_3044_8508)">
<path d="M293.738 116.585C295.709 110.472 304.291 110.472 306.262 116.585L314.968 143.587C315.85 146.321 318.378 148.172 321.23 148.172L349.403 148.172C355.781 148.172 358.434 156.397 353.273 160.176L330.481 176.863C328.173 178.553 327.208 181.548 328.089 184.282L336.795 211.284C338.766 217.397 331.823 222.481 326.662 218.703L303.87 202.015C301.562 200.325 298.437 200.325 296.13 202.015L273.338 218.703C268.177 222.481 261.234 217.397 263.205 211.284L271.911 184.282C272.792 181.548 271.827 178.553 269.519 176.863L246.727 160.176C241.566 156.397 244.219 148.172 250.597 148.172L278.77 148.172C281.622 148.172 284.15 146.321 285.032 143.587L293.738 116.585Z" fill="url(#paint1_linear_3044_8508)"/>
</g>
<rect x="0.5" y="161.5" width="279" height="63" rx="7.5" fill="white" stroke="#E8EAFA"/>
<circle cx="36" cy="193" r="20" fill="#E8EAFA"/>
<rect x="64" y="185" width="128" height="16" rx="4" fill="#E8EAFA"/>
<rect x="200" y="185" width="64" height="16" rx="4" fill="#E8EAFA"/>
<defs>
<linearGradient id="paint0_linear_3044_8508" x1="300" y1="16" x2="300" y2="248" gradientUnits="userSpaceOnUse">
<stop stop-color="#E8EAFA"/>
<stop offset="1" stop-color="#9CA8EA"/>
</linearGradient>
<linearGradient id="paint1_linear_3044_8508" x1="300" y1="97.1621" x2="300" y2="244.805" gradientUnits="userSpaceOnUse">
<stop stop-color="#BEC6F8"/>
<stop offset="1" stop-color="#E8EAFA"/>
</linearGradient>
</defs>
</svg>
