<svg width="64" height="64" viewBox="0 0 64 64" fill="none" xmlns="http://www.w3.org/2000/svg">
<path d="M4.43696 9.6001C2.74556 9.6001 1.37441 10.9834 1.37441 12.6898V51.3104C1.37441 53.0168 2.74556 54.4001 4.43696 54.4001H59.563C61.2544 54.4001 62.6256 53.0168 62.6256 51.3104V18.8691C62.6256 17.1627 61.2544 15.7794 59.563 15.7794H33.7014C32.5413 15.7794 31.4809 15.1182 30.9621 14.0715L29.5925 11.308C29.0737 10.2613 28.0133 9.6001 26.8533 9.6001H4.43696Z" fill="url(#paint0_linear_5190_12534)"/>
<path d="M0.00390034 26.7475C-0.0835639 24.9827 1.31117 23.5035 3.06264 23.5035H60.9374C62.6888 23.5035 64.0836 24.9827 63.9961 26.7475L62.7711 51.4647C62.6896 53.1091 61.3443 54.4001 59.7123 54.4001H4.28766C2.6557 54.4001 1.31042 53.1091 1.22892 51.4647L0.00390034 26.7475Z" fill="#E8EAFA"/>
<defs>
<linearGradient id="paint0_linear_5190_12534" x1="32" y1="9.6001" x2="32" y2="54.4001" gradientUnits="userSpaceOnUse">
<stop stop-color="#E8EAFA"/>
<stop offset="1" stop-color="#9CA8EA"/>
</linearGradient>
</defs>
</svg>
