<svg width="224" height="224" viewBox="0 0 224 224" fill="none" xmlns="http://www.w3.org/2000/svg">
<rect width="224" height="224" rx="16" fill="#7186E3"/>
<path d="M50.6578 152.88H53.8258V156.864H50.6578V152.88ZM42.2338 155.544H62.3218V158.064H42.2338V155.544ZM52.2418 159.288C57.0658 159.288 59.9458 160.704 59.9458 163.224C59.9458 165.744 57.0658 167.136 52.2418 167.136C47.4178 167.136 44.5138 165.744 44.5138 163.224C44.5138 160.704 47.4178 159.288 52.2418 159.288ZM52.2418 161.688C49.2418 161.688 47.7538 162.168 47.7538 163.224C47.7538 164.304 49.2418 164.76 52.2418 164.76C55.2418 164.76 56.7298 164.304 56.7298 163.224C56.7298 162.168 55.2418 161.688 52.2418 161.688ZM50.0818 147H52.9138V147.552C52.9138 150.888 49.9138 153.6 44.1778 154.152L43.0738 151.632C47.9458 151.224 50.0818 149.28 50.0818 147.552V147ZM51.6418 147H54.4738V147.552C54.4738 149.28 56.5858 151.224 61.4818 151.632L60.3778 154.152C54.6658 153.6 51.6418 150.912 51.6418 147.552V147ZM44.0578 145.824H60.5218V148.344H44.0578V145.824ZM66.3039 145.776H81.3999V153.648H66.3039V145.776ZM78.2559 148.272H69.4239V151.152H78.2559V148.272ZM63.8319 155.736H83.9199V158.256H63.8319V155.736ZM72.2559 153.072H75.4479V156.456H72.2559V153.072ZM66.0639 159.864H81.4959V167.136H78.3039V162.384H66.0639V159.864ZM95.4939 146.112H98.1099V148.08C98.1099 152.496 96.1899 156.384 91.9659 157.848L90.2619 155.328C93.9819 154.08 95.4939 151.104 95.4939 148.08V146.112ZM96.1419 146.112H98.7339V148.392C98.7339 151.056 100.222 153.648 103.702 154.728L102.046 157.2C98.0379 155.856 96.1419 152.4 96.1419 148.392V146.112ZM104.926 144.912H108.118V158.04H104.926V144.912ZM107.23 150.048H111.07V152.688H107.23V150.048ZM100.87 158.544C105.478 158.544 108.382 160.152 108.382 162.84C108.382 165.552 105.478 167.136 100.87 167.136C96.2379 167.136 93.3339 165.552 93.3339 162.84C93.3339 160.152 96.2379 158.544 100.87 158.544ZM100.87 161.016C98.0379 161.016 96.5019 161.616 96.5019 162.84C96.5019 164.088 98.0379 164.664 100.87 164.664C103.702 164.664 105.214 164.088 105.214 162.84C105.214 161.616 103.702 161.016 100.87 161.016ZM120.98 152.376H124.652V154.968H120.98V152.376ZM116.228 146.832H118.676V150.576C118.676 155.616 117.284 160.536 113.732 162.72L111.812 160.32C115.076 158.304 116.228 154.344 116.228 150.576V146.832ZM116.924 146.832H119.324V150.432C119.324 154.056 120.26 157.752 123.284 159.72L121.556 162.216C118.028 160.032 116.924 155.232 116.924 150.432V146.832ZM128.276 144.912H131.324V167.136H128.276V144.912ZM123.764 145.248H126.74V166.128H123.764V145.248ZM143.882 150.672H146.354V151.824C146.354 156.504 144.362 161.232 140.33 163.032L138.602 160.584C142.226 158.928 143.882 155.16 143.882 151.824V150.672ZM144.578 150.672H147.05V151.824C147.05 154.992 148.61 158.544 152.09 160.224L150.386 162.648C146.474 160.848 144.578 156.288 144.578 151.824V150.672ZM139.37 148.536H151.466V151.056H139.37V148.536ZM143.858 145.416H147.05V149.832H143.858V145.416ZM153.218 144.912H156.434V167.136H153.218V144.912ZM155.714 153.528H159.65V156.168H155.714V153.528ZM162.984 156.36H178.608V158.856H162.984V156.36ZM160.632 162H180.744V164.592H160.632V162ZM162.984 146.52H178.416V149.088H166.224V157.056H162.984V146.52ZM165.24 151.416H177.912V153.888H165.24V151.416Z" fill="#E8EAFA"/>
<path d="M100 78.5L76 96.5V119.5H148V70.5L124 95L100 78.5Z" fill="url(#paint0_linear_3289_7348)"/>
<path d="M76 96.5L100 78.5L124 95L148 70.5" stroke="#C4CAF3" stroke-width="4"/>
<circle cx="76" cy="96.5" r="4" fill="#E8EAFA"/>
<circle cx="100" cy="78.5" r="4" fill="#E8EAFA"/>
<circle cx="124" cy="94.5" r="4" fill="#E8EAFA"/>
<circle cx="148" cy="70.5" r="4" fill="#E8EAFA"/>
<defs>
<linearGradient id="paint0_linear_3289_7348" x1="112" y1="70.5" x2="112" y2="119.5" gradientUnits="userSpaceOnUse">
<stop stop-color="#C4CAF3"/>
<stop offset="1" stop-color="#C4CAF3" stop-opacity="0"/>
</linearGradient>
</defs>
</svg>
