<svg width="224" height="224" viewBox="0 0 224 224" fill="none" xmlns="http://www.w3.org/2000/svg">
<rect width="224" height="224" rx="16" fill="#7186E3"/>
<path d="M77.5462 65.2456C75.432 65.2456 73.718 66.9596 73.718 69.0738V116.926C73.718 119.041 75.432 120.754 77.5462 120.754H146.454C148.568 120.754 150.282 119.041 150.282 116.926V76.7302C150.282 74.6159 148.568 72.902 146.454 72.902H114.127C112.677 72.902 111.351 72.0828 110.703 70.7858L108.991 67.3618C108.342 66.0649 107.017 65.2456 105.567 65.2456H77.5462Z" fill="url(#paint0_linear_3289_7347)"/>
<path d="M72.0049 86.4918C71.8955 84.3052 73.639 82.4724 75.8283 82.4724H148.172C150.361 82.4724 152.104 84.3052 151.995 86.4918L150.464 117.117C150.362 119.155 148.68 120.754 146.64 120.754H77.3596C75.3196 120.754 73.638 119.155 73.5362 117.117L72.0049 86.4918Z" fill="#E8EAFA"/>
<path d="M110.502 89.3119C110.973 87.8492 113.027 87.8492 113.498 89.3119L115.581 95.7723C115.792 96.4265 116.397 96.8694 117.08 96.8694L123.82 96.8694C125.346 96.8694 125.981 98.8375 124.746 99.7415L119.293 103.734C118.741 104.139 118.51 104.855 118.721 105.509L120.804 111.97C121.275 113.432 119.614 114.649 118.379 113.745L112.926 109.752C112.374 109.348 111.626 109.348 111.074 109.752L105.621 113.745C104.386 114.649 102.725 113.432 103.196 111.97L105.279 105.509C105.49 104.855 105.259 104.139 104.707 103.734L99.2538 99.7415C98.0191 98.8375 98.6536 96.8694 100.18 96.8694L106.92 96.8694C107.603 96.8694 108.208 96.4265 108.419 95.7723L110.502 89.3119Z" fill="url(#paint1_linear_3289_7347)"/>
<path d="M67.4118 146.52H76.9158V149.088H67.4118V146.52ZM70.1478 151.704H73.3158V157.272H70.1478V151.704ZM75.6678 146.52H78.8118V147.912C78.8118 149.472 78.8118 151.68 78.2838 154.44L75.1878 154.104C75.6678 151.368 75.6678 149.448 75.6678 147.912V146.52ZM80.9718 144.912H84.1878V161.544H80.9718V144.912ZM82.9158 151.68H86.8278V154.296H82.9158V151.68ZM69.3558 164.208H84.8838V166.752H69.3558V164.208ZM69.3558 160.056H72.5478V165H69.3558V160.056ZM66.4038 158.568L66.1158 156.048C69.9558 156.048 75.3078 155.976 79.7718 155.352L79.9638 157.608C75.3798 158.472 70.2198 158.568 66.4038 158.568ZM103.29 144.936H106.506V157.464H103.29V144.936ZM91.7219 158.496H106.506V166.896H91.7219V158.496ZM103.362 160.992H94.8419V164.376H103.362V160.992ZM93.2339 145.728H95.8739V147.864C95.8739 151.992 93.8099 155.736 89.4659 157.104L87.9299 154.584C91.6499 153.432 93.2339 150.6 93.2339 147.864V145.728ZM93.8819 145.728H96.4979V147.864C96.4979 150.552 98.0579 153.144 101.658 154.224L100.122 156.696C95.8739 155.424 93.8819 151.944 93.8819 147.864V145.728ZM123.24 152.88H126.408V156.864H123.24V152.88ZM114.816 155.544H134.904V158.064H114.816V155.544ZM124.824 159.288C129.648 159.288 132.528 160.704 132.528 163.224C132.528 165.744 129.648 167.136 124.824 167.136C120 167.136 117.096 165.744 117.096 163.224C117.096 160.704 120 159.288 124.824 159.288ZM124.824 161.688C121.824 161.688 120.336 162.168 120.336 163.224C120.336 164.304 121.824 164.76 124.824 164.76C127.824 164.76 129.312 164.304 129.312 163.224C129.312 162.168 127.824 161.688 124.824 161.688ZM122.664 147H125.496V147.552C125.496 150.888 122.496 153.6 116.76 154.152L115.656 151.632C120.528 151.224 122.664 149.28 122.664 147.552V147ZM124.224 147H127.056V147.552C127.056 149.28 129.168 151.224 134.064 151.632L132.96 154.152C127.248 153.6 124.224 150.912 124.224 147.552V147ZM116.64 145.824H133.104V148.344H116.64V145.824ZM138.886 145.776H153.982V153.648H138.886V145.776ZM150.838 148.272H142.006V151.152H150.838V148.272ZM136.414 155.736H156.502V158.256H136.414V155.736ZM144.838 153.072H148.03V156.456H144.838V153.072ZM138.646 159.864H154.078V167.136H150.886V162.384H138.646V159.864Z" fill="#E8EAFA"/>
<defs>
<linearGradient id="paint0_linear_3289_7347" x1="112" y1="65.2456" x2="112" y2="120.754" gradientUnits="userSpaceOnUse">
<stop stop-color="#E8EAFA"/>
<stop offset="1" stop-color="#9CA8EA"/>
</linearGradient>
<linearGradient id="paint1_linear_3289_7347" x1="112" y1="84.6647" x2="112" y2="119.99" gradientUnits="userSpaceOnUse">
<stop stop-color="#9CA8EA"/>
<stop offset="1" stop-color="#C4CAF3" stop-opacity="0.2"/>
</linearGradient>
</defs>
</svg>
