<svg width="80" height="80" viewBox="0 0 80 80" fill="none" xmlns="http://www.w3.org/2000/svg">
<path d="M5.54622 12.2456C3.43196 12.2456 1.71802 13.9596 1.71802 16.0738V63.9263C1.71802 66.0406 3.43196 67.7545 5.54622 67.7545H74.4538C76.5681 67.7545 78.282 66.0406 78.282 63.9263V23.7302C78.282 21.6159 76.5681 19.902 74.4538 19.902H42.1267C40.6767 19.902 39.3511 19.0828 38.7027 17.7858L36.9906 14.3618C36.3422 13.0649 35.0166 12.2456 33.5666 12.2456H5.54622Z" fill="url(#paint0_linear_3286_7342)"/>
<path d="M0.00487542 33.492C-0.104455 31.3054 1.63896 29.4727 3.8283 29.4727H76.1717C78.361 29.4727 80.1045 31.3054 79.9951 33.492L78.4639 64.1176C78.362 66.155 76.6804 67.7547 74.6404 67.7547H5.35958C3.31963 67.7547 1.63803 66.155 1.53615 64.1176L0.00487542 33.492Z" fill="#E8EAFA"/>
<path d="M38.5017 36.3119C38.9733 34.8492 41.0267 34.8492 41.4983 36.3119L43.5813 42.7723C43.7922 43.4265 44.3971 43.8694 45.0796 43.8694L51.8203 43.8694C53.3464 43.8694 53.981 45.8375 52.7463 46.7415L47.293 50.7342C46.7408 51.1385 46.5098 51.8551 46.7207 52.5093L48.8037 58.9697C49.2753 60.4324 47.614 61.6488 46.3793 60.7448L40.926 56.752C40.3739 56.3477 39.6262 56.3477 39.074 56.752L33.6207 60.7448C32.386 61.6488 30.7248 60.4324 31.1964 58.9697L33.2793 52.5093C33.4902 51.8551 33.2592 51.1385 32.707 50.7342L27.2538 46.7415C26.0191 45.8375 26.6536 43.8694 28.1798 43.8694L34.9204 43.8694C35.6029 43.8694 36.2078 43.4265 36.4187 42.7723L38.5017 36.3119Z" fill="url(#paint1_linear_3286_7342)"/>
<defs>
<linearGradient id="paint0_linear_3286_7342" x1="40" y1="12.2456" x2="40" y2="67.7545" gradientUnits="userSpaceOnUse">
<stop stop-color="#E8EAFA"/>
<stop offset="1" stop-color="#9CA8EA"/>
</linearGradient>
<linearGradient id="paint1_linear_3286_7342" x1="40.0001" y1="31.6647" x2="40.0001" y2="66.9901" gradientUnits="userSpaceOnUse">
<stop stop-color="#9CA8EA"/>
<stop offset="1" stop-color="#C4CAF3" stop-opacity="0.2"/>
</linearGradient>
</defs>
</svg>
