<svg width="224" height="224" viewBox="0 0 224 224" fill="none" xmlns="http://www.w3.org/2000/svg">
<rect width="224" height="224" rx="16" fill="#7186E3"/>
<path d="M68.8518 164.208H84.2598V166.752H68.8518V164.208ZM68.8518 160.32H72.0438V165.072H68.8518V160.32ZM66.4278 156.432H86.5398V158.976H66.4278V156.432ZM74.8518 153.336H78.0198V157.416H74.8518V153.336ZM74.8038 145.536H77.5398V146.208C77.5398 150.408 74.3238 153.792 68.6838 154.68L67.4598 152.184C72.4278 151.488 74.8038 148.8 74.8038 146.208V145.536ZM75.3318 145.536H78.0678V146.208C78.0678 148.92 80.3958 151.512 85.4118 152.184L84.1878 154.68C78.5478 153.744 75.3318 150.528 75.3318 146.208V145.536ZM91.3379 159H106.506V167.136H103.29V161.52H91.3379V159ZM103.29 144.912H106.506V157.944H103.29V144.912ZM94.4099 146.112C97.8419 146.112 100.434 148.392 100.434 151.56C100.434 154.728 97.8419 156.984 94.4099 156.984C90.9539 156.984 88.3619 154.728 88.3619 151.56C88.3619 148.392 90.9539 146.112 94.4099 146.112ZM94.4099 148.824C92.7299 148.824 91.4819 149.808 91.4819 151.56C91.4819 153.312 92.7299 154.32 94.4099 154.32C96.0899 154.32 97.3139 153.312 97.3139 151.56C97.3139 149.808 96.0899 148.824 94.4099 148.824ZM129.12 144.912H132.312V156H129.12V144.912ZM131.016 149.16H135.24V151.776H131.016V149.16ZM117.624 156.888H132.312V162.984H120.84V165.624H117.672V160.68H129.168V159.336H117.624V156.888ZM117.672 164.4H132.96V166.896H117.672V164.4ZM120.888 145.56C124.296 145.56 126.816 147.648 126.816 150.6C126.816 153.528 124.296 155.64 120.888 155.64C117.504 155.64 114.96 153.528 114.96 150.6C114.96 147.648 117.504 145.56 120.888 145.56ZM120.888 148.128C119.256 148.128 118.056 149.04 118.056 150.6C118.056 152.16 119.256 153.096 120.888 153.096C122.544 153.096 123.744 152.16 123.744 150.6C123.744 149.04 122.544 148.128 120.888 148.128ZM151.678 144.912H154.894V158.088H151.678V144.912ZM137.566 154.776H139.51C143.83 154.776 146.638 154.704 149.854 154.176L150.214 156.696C146.902 157.272 143.95 157.368 139.51 157.368H137.566V154.776ZM137.542 146.184H147.766V152.88H140.71V156.312H137.566V150.504H144.622V148.704H137.542V146.184ZM140.11 159.096H154.894V166.896H140.11V159.096ZM151.75 161.592H143.23V164.376H151.75V161.592Z" fill="#E8EAFA"/>
<path d="M137.414 100.586L132 95.1718V88C131.994 83.0439 130.15 78.2662 126.825 74.5908C123.5 70.9154 118.931 68.6033 114 68.1016V64H110V68.1016C105.069 68.6033 100.5 70.9154 97.1751 74.5908C93.8503 78.2662 92.0064 83.0439 92 88V95.1718L86.586 100.586C86.4002 100.772 86.2528 100.992 86.1523 101.235C86.0517 101.477 86 101.737 86 102V108C86 108.53 86.2107 109.039 86.5858 109.414C86.9609 109.789 87.4696 110 88 110H102V112C102 114.652 103.054 117.196 104.929 119.071C106.804 120.946 109.348 122 112 122C114.652 122 117.196 120.946 119.071 119.071C120.946 117.196 122 114.652 122 112V110H136C136.53 110 137.039 109.789 137.414 109.414C137.789 109.039 138 108.53 138 108V102C138 101.737 137.948 101.477 137.848 101.235C137.747 100.992 137.6 100.772 137.414 100.586ZM118 112C118 113.591 117.368 115.117 116.243 116.243C115.117 117.368 113.591 118 112 118C110.409 118 108.883 117.368 107.757 116.243C106.632 115.117 106 113.591 106 112V110H118V112Z" fill="#E8EAFA"/>
<circle cx="112" cy="112" r="7" fill="url(#paint0_linear_3289_7349)"/>
<defs>
<linearGradient id="paint0_linear_3289_7349" x1="112" y1="105" x2="112" y2="119" gradientUnits="userSpaceOnUse">
<stop stop-color="#E8EAFA"/>
<stop offset="1" stop-color="#E8EAFA" stop-opacity="0"/>
</linearGradient>
</defs>
</svg>
