<svg width="80" height="80" viewBox="0 0 80 80" fill="none" xmlns="http://www.w3.org/2000/svg">
<path d="M65.414 47.586L60 42.1718V35C59.9936 30.0439 58.1497 25.2662 54.8249 21.5908C51.5002 17.9154 46.9306 15.6033 42 15.1016V11H38V15.1016C33.0694 15.6033 28.4998 17.9154 25.1751 21.5908C21.8503 25.2662 20.0064 30.0439 20 35V42.1718L14.586 47.586C14.4002 47.7716 14.2528 47.9921 14.1523 48.2347C14.0517 48.4773 14 48.7374 14 49V55C14 55.5304 14.2107 56.0391 14.5858 56.4142C14.9609 56.7893 15.4696 57 16 57H30V59C30 61.6522 31.0536 64.1957 32.9289 66.0711C34.8043 67.9464 37.3478 69 40 69C42.6522 69 45.1957 67.9464 47.0711 66.0711C48.9464 64.1957 50 61.6522 50 59V57H64C64.5304 57 65.0391 56.7893 65.4142 56.4142C65.7893 56.0391 66 55.5304 66 55V49C66 48.7374 65.9483 48.4773 65.8477 48.2347C65.7472 47.9921 65.5998 47.7716 65.414 47.586ZM46 59C46 60.5913 45.3679 62.1174 44.2426 63.2426C43.1174 64.3679 41.5913 65 40 65C38.4087 65 36.8826 64.3679 35.7574 63.2426C34.6321 62.1174 34 60.5913 34 59V57H46V59Z" fill="#E8EAFA"/>
<circle cx="40" cy="59" r="7" fill="url(#paint0_linear_3286_7343)"/>
<defs>
<linearGradient id="paint0_linear_3286_7343" x1="40" y1="52" x2="40" y2="66" gradientUnits="userSpaceOnUse">
<stop stop-color="#E8EAFA"/>
<stop offset="1" stop-color="#E8EAFA" stop-opacity="0"/>
</linearGradient>
</defs>
</svg>
