<svg width="464" height="464" viewBox="0 0 464 464" fill="none" xmlns="http://www.w3.org/2000/svg">
<rect width="464" height="464" rx="16" fill="#F5F6FC"/>
<path d="M32 0H432V384C432 392.837 424.837 400 416 400H48C39.1635 400 32 392.837 32 384V0Z" fill="white"/>
<rect x="0.5" y="0.5" width="463" height="463" rx="15.5" stroke="#E8EAFA"/>
<g clip-path="url(#clip0_3289_7354)">
<path d="M67.0458 -55.0034H70.4883V-63.9789H73.2762V-52.749H70.4883V-53.3178H67.0458V-55.0034ZM63.0963 -61.872C61.7024 -61.872 60.8154 -61.5138 60.8154 -60.7764C60.8154 -60.06 61.7024 -59.7018 63.0963 -59.7018C64.4902 -59.7018 65.3562 -60.06 65.3562 -60.7764C65.3562 -61.5138 64.4902 -61.872 63.0963 -61.872ZM63.0963 -57.911C60.1818 -57.911 58.2387 -59.0276 58.2387 -60.7764C58.2387 -62.5673 60.1818 -63.684 63.0963 -63.684C65.9898 -63.684 67.9539 -62.5673 67.9539 -60.7764C67.9539 -59.0276 65.9898 -57.911 63.0963 -57.911ZM61.6179 -52.7279V-55.2773C60.0762 -55.2562 58.5766 -55.2562 57.2038 -55.2562L56.9293 -57.1525C60.6464 -57.1525 65.2717 -57.1525 69.3478 -57.5738L69.5168 -55.8672C67.8272 -55.6355 66.1165 -55.488 64.4058 -55.4037V-52.7279H61.6179ZM62.4627 -46.6178H73.7197V-44.7215H59.7171V-49.3568H70.5306V-50.2838H59.696V-52.159H73.2762V-47.608H62.4627V-46.6178Z" fill="#373840"/>
<path d="M86.1435 -51.3794V-55.7197H83.6514V-51.3794H86.1435ZM86.1435 -57.8899V-62.2723H88.699V-49.1672H81.0325V-62.2723H83.6514V-57.8899H86.1435ZM94.5282 -64H97.1682V-44.5951H94.5282V-54.3502H92.9019V-45.4379H90.3042V-63.684H92.9019V-56.5836H94.5282V-64Z" fill="#373840"/>
<path d="M110.514 -56.6047L110.789 -54.3924C108.402 -53.8867 106.164 -53.7814 101.813 -53.7814H100.166V-62.6726H108.888V-60.4603H102.932V-56.0147C106.459 -56.0358 108.402 -56.1622 110.514 -56.6047ZM108.423 -46.7863C110.895 -46.7863 112.267 -47.3341 112.267 -48.514C112.267 -49.6728 110.895 -50.2206 108.423 -50.2206C105.974 -50.2206 104.601 -49.6728 104.601 -48.514C104.601 -47.3341 105.974 -46.7863 108.423 -46.7863ZM108.423 -52.4329C112.457 -52.4329 115.013 -50.9581 115.013 -48.514C115.013 -46.0278 112.457 -44.553 108.423 -44.553C104.432 -44.553 101.855 -46.0278 101.855 -48.514C101.855 -50.9581 104.432 -52.4329 108.423 -52.4329ZM114.844 -59.3858H117.378V-57.1314H114.844V-52.77H112.035V-64H114.844V-59.3858Z" fill="#373840"/>
<path d="M123.311 -49.715V-46.9759H131.231V-49.715H123.311ZM120.566 -44.8058V-51.8851H133.956V-44.8058H120.566ZM133.597 -56.1201H136.11V-53.9078H118.496V-56.1201H130.83C131.231 -58.0584 131.295 -59.5544 131.295 -60.9028H120.671V-63.1151H134.04V-61.556C134.04 -59.9968 134.04 -58.3534 133.597 -56.1201Z" fill="#373840"/>
<path d="M60.4 70.3734C60.4 68.434 61.976 66.8618 63.92 66.8618H70.96C72.904 66.8618 74.48 68.434 74.48 70.3734V151.139C74.48 153.079 72.904 154.651 70.96 154.651H63.92C61.976 154.651 60.4 153.079 60.4 151.139V70.3734Z" fill="#E8EAFA"/>
<path d="M90.32 52.8156C90.32 50.8762 91.896 49.304 93.84 49.304H100.88C102.824 49.304 104.4 50.8762 104.4 52.8156V151.139C104.4 153.079 102.824 154.651 100.88 154.651H93.84C91.896 154.651 90.32 153.079 90.32 151.139V52.8156Z" fill="#E8EAFA"/>
<path d="M120.24 35.2578C120.24 33.3184 121.816 31.7462 123.76 31.7462H130.8C132.744 31.7462 134.32 33.3184 134.32 35.2578V151.139C134.32 153.079 132.744 154.651 130.8 154.651H123.76C121.816 154.651 120.24 153.079 120.24 151.139V35.2578Z" fill="#E8EAFA"/>
<path d="M150.16 17.7C150.16 15.7606 151.736 14.1884 153.68 14.1884H160.72C162.664 14.1884 164.24 15.7606 164.24 17.7V151.139C164.24 153.079 162.664 154.651 160.72 154.651H153.68C151.736 154.651 150.16 153.079 150.16 151.139V17.7Z" fill="#E8EAFA"/>
<path d="M180.08 35.2578C180.08 33.3184 181.656 31.7462 183.6 31.7462H190.64C192.584 31.7462 194.16 33.3184 194.16 35.2578V151.139C194.16 153.079 192.584 154.651 190.64 154.651H183.6C181.656 154.651 180.08 153.079 180.08 151.139V35.2578Z" fill="#E8EAFA"/>
<path d="M210 0.142189C210 -1.79719 211.576 -3.36937 213.52 -3.36937H220.56C222.504 -3.36937 224.08 -1.79719 224.08 0.142189V151.139C224.08 153.079 222.504 154.651 220.56 154.651H213.52C211.576 154.651 210 153.079 210 151.139V0.142189Z" fill="#E8EAFA"/>
<path d="M239.92 35.2578C239.92 33.3184 241.496 31.7462 243.44 31.7462H250.48C252.424 31.7462 254 33.3184 254 35.2578V151.139C254 153.079 252.424 154.651 250.48 154.651H243.44C241.496 154.651 239.92 153.079 239.92 151.139V35.2578Z" fill="#E8EAFA"/>
<path d="M269.84 52.8156C269.84 50.8762 271.416 49.304 273.36 49.304H280.4C282.344 49.304 283.92 50.8762 283.92 52.8156V151.139C283.92 153.079 282.344 154.651 280.4 154.651H273.36C271.416 154.651 269.84 153.079 269.84 151.139V52.8156Z" fill="#E8EAFA"/>
<path d="M299.76 70.3734C299.76 68.434 301.336 66.8618 303.28 66.8618H310.32C312.264 66.8618 313.84 68.434 313.84 70.3734V151.139C313.84 153.079 312.264 154.651 310.32 154.651H303.28C301.336 154.651 299.76 153.079 299.76 151.139V70.3734Z" fill="#E8EAFA"/>
<path d="M329.68 35.2578C329.68 33.3184 331.256 31.7462 333.2 31.7462H340.24C342.184 31.7462 343.76 33.3184 343.76 35.2578V151.139C343.76 153.079 342.184 154.651 340.24 154.651H333.2C331.256 154.651 329.68 153.079 329.68 151.139V35.2578Z" fill="#E8EAFA"/>
<path d="M359.6 17.7C359.6 15.7606 361.176 14.1884 363.12 14.1884H370.16C372.104 14.1884 373.68 15.7606 373.68 17.7V151.139C373.68 153.079 372.104 154.651 370.16 154.651H363.12C361.176 154.651 359.6 153.079 359.6 151.139V17.7Z" fill="#1F4FD5"/>
<path d="M389.52 0.142189C389.52 -1.79719 391.096 -3.36937 393.04 -3.36937H400.08C402.024 -3.36937 403.6 -1.79719 403.6 0.142189V151.139C403.6 153.079 402.024 154.651 400.08 154.651H393.04C391.096 154.651 389.52 153.079 389.52 151.139V0.142189Z" fill="#E8EAFA"/>
<path d="M60.3462 180.988V180.208H62.4054V174.288H62.3314L60.4729 176.015L59.9554 175.457L61.909 173.634H63.2924V180.208H65.1932V180.988H60.3462Z" fill="#B7B8C3"/>
<path d="M71.3139 176.816H73.1936V172.328H74.0595V177.88H73.1936V177.385H71.3139V176.816ZM69.3391 173.108C68.4204 173.108 67.8185 173.424 67.8185 173.929C67.8185 174.414 68.4204 174.741 69.3391 174.741C70.2684 174.741 70.8598 174.414 70.8598 173.929C70.8598 173.424 70.2684 173.108 69.3391 173.108ZM69.3391 175.33C67.9347 175.33 67.0054 174.793 67.0054 173.929C67.0054 173.044 67.9347 172.507 69.3391 172.507C70.7436 172.507 71.6729 173.044 71.6729 173.929C71.6729 174.793 70.7436 175.33 69.3391 175.33ZM68.8534 177.911V176.5C67.9769 176.521 67.1427 176.531 66.3823 176.531L66.2768 175.878C68.1036 175.878 70.4163 175.868 72.4438 175.636L72.4966 176.205C71.5779 176.331 70.638 176.405 69.7193 176.458V177.911H68.8534ZM68.5894 181.019H74.3868V181.662H67.734V179.608H73.2147V178.849H67.7129V178.228H74.0595V180.198H68.5894V181.019Z" fill="#B7B8C3"/>
<path d="M94.9654 180.988H90.1289V180.082L92.5366 177.869C92.8815 177.553 93.1702 177.22 93.4025 176.869C93.6348 176.51 93.751 176.152 93.751 175.794V175.668C93.751 175.26 93.6383 174.93 93.413 174.677C93.1878 174.424 92.8463 174.298 92.3887 174.298C92.1634 174.298 91.9663 174.33 91.7974 174.393C91.6284 174.456 91.4806 174.544 91.3538 174.656C91.2342 174.769 91.1321 174.902 91.0476 175.057C90.9702 175.204 90.9068 175.366 90.8575 175.541L90.0655 175.236C90.1359 175.018 90.231 174.807 90.3506 174.604C90.4774 174.393 90.6322 174.207 90.8153 174.045C91.0054 173.884 91.2306 173.754 91.4911 173.655C91.7586 173.557 92.0719 173.508 92.431 173.508C92.79 173.508 93.1103 173.561 93.3919 173.666C93.6735 173.771 93.9094 173.919 94.0994 174.108C94.2895 174.298 94.4338 174.523 94.5324 174.783C94.638 175.043 94.6908 175.33 94.6908 175.647C94.6908 175.934 94.6486 176.201 94.5641 176.447C94.4866 176.693 94.3775 176.928 94.2367 177.153C94.0959 177.371 93.9234 177.585 93.7193 177.796C93.5222 178.006 93.3074 178.217 93.0751 178.428L91.0898 180.208H94.9654V180.988Z" fill="#B7B8C3"/>
<path d="M101.234 176.816H103.114V172.328H103.979V177.88H103.114V177.385H101.234V176.816ZM99.2592 173.108C98.3404 173.108 97.7385 173.424 97.7385 173.929C97.7385 174.414 98.3404 174.741 99.2592 174.741C100.188 174.741 100.78 174.414 100.78 173.929C100.78 173.424 100.188 173.108 99.2592 173.108ZM99.2592 175.33C97.8547 175.33 96.9254 174.793 96.9254 173.929C96.9254 173.044 97.8547 172.507 99.2592 172.507C100.664 172.507 101.593 173.044 101.593 173.929C101.593 174.793 100.664 175.33 99.2592 175.33ZM98.7734 177.911V176.5C97.8969 176.521 97.0627 176.531 96.3023 176.531L96.1967 175.878C98.0236 175.878 100.336 175.868 102.364 175.636L102.417 176.205C101.498 176.331 100.558 176.405 99.6393 176.458V177.911H98.7734ZM98.5094 181.019H104.307V181.662H97.654V179.608H103.135V178.849H97.6329V178.228H103.979V180.198H98.5094V181.019Z" fill="#B7B8C3"/>
<path d="M122.013 176.753C122.513 176.753 122.886 176.64 123.132 176.416C123.386 176.184 123.513 175.889 123.513 175.531V175.457C123.513 175.071 123.389 174.783 123.143 174.593C122.904 174.396 122.587 174.298 122.193 174.298C121.812 174.298 121.503 174.382 121.263 174.551C121.024 174.712 120.827 174.934 120.672 175.215L120.017 174.709C120.109 174.561 120.218 174.417 120.345 174.277C120.478 174.13 120.633 174 120.809 173.887C120.985 173.775 121.189 173.684 121.422 173.613C121.654 173.543 121.918 173.508 122.214 173.508C122.523 173.508 122.816 173.55 123.09 173.634C123.365 173.712 123.601 173.831 123.798 173.993C124.002 174.147 124.16 174.34 124.273 174.572C124.393 174.804 124.452 175.067 124.452 175.362C124.452 175.601 124.414 175.815 124.336 176.005C124.266 176.194 124.167 176.359 124.041 176.5C123.914 176.64 123.762 176.76 123.586 176.858C123.418 176.956 123.234 177.03 123.037 177.079V177.121C123.234 177.164 123.425 177.234 123.608 177.332C123.798 177.423 123.963 177.546 124.104 177.701C124.252 177.848 124.368 178.031 124.452 178.249C124.544 178.459 124.59 178.702 124.59 178.975C124.59 179.292 124.53 179.583 124.41 179.85C124.29 180.11 124.122 180.334 123.903 180.524C123.685 180.707 123.421 180.851 123.111 180.956C122.802 181.061 122.46 181.114 122.087 181.114C121.77 181.114 121.489 181.079 121.242 181.009C120.996 180.938 120.778 180.844 120.587 180.724C120.397 180.605 120.228 180.471 120.081 180.324C119.94 180.176 119.813 180.022 119.7 179.86L120.366 179.355C120.457 179.502 120.556 179.636 120.661 179.755C120.774 179.874 120.897 179.976 121.031 180.061C121.165 180.145 121.316 180.212 121.485 180.261C121.654 180.303 121.851 180.324 122.076 180.324C122.597 180.324 122.992 180.208 123.259 179.976C123.527 179.737 123.66 179.4 123.66 178.965V178.881C123.66 178.445 123.527 178.112 123.259 177.88C122.992 177.641 122.597 177.522 122.076 177.522H121.21V176.753H122.013Z" fill="#B7B8C3"/>
<path d="M131.154 176.816H133.034V172.328H133.899V177.88H133.034V177.385H131.154V176.816ZM129.179 173.108C128.26 173.108 127.659 173.424 127.659 173.929C127.659 174.414 128.26 174.741 129.179 174.741C130.108 174.741 130.7 174.414 130.7 173.929C130.7 173.424 130.108 173.108 129.179 173.108ZM129.179 175.33C127.775 175.33 126.845 174.793 126.845 173.929C126.845 173.044 127.775 172.507 129.179 172.507C130.584 172.507 131.513 173.044 131.513 173.929C131.513 174.793 130.584 175.33 129.179 175.33ZM128.693 177.911V176.5C127.817 176.521 126.983 176.531 126.222 176.531L126.117 175.878C127.944 175.878 130.256 175.868 132.284 175.636L132.337 176.205C131.418 176.331 130.478 176.405 129.559 176.458V177.911H128.693ZM128.429 181.019H134.227V181.662H127.574V179.608H133.055V178.849H127.553V178.228H133.899V180.198H128.429V181.019Z" fill="#B7B8C3"/>
<path d="M153.137 180.988V179.544H149.578V178.765L152.662 173.634H153.982V178.807H155.048V179.544H153.982V180.988H153.137ZM150.412 178.807H153.137V174.319H153.084L150.412 178.807Z" fill="#B7B8C3"/>
<path d="M161.074 176.816H162.954V172.328H163.819V177.88H162.954V177.385H161.074V176.816ZM159.099 173.108C158.18 173.108 157.579 173.424 157.579 173.929C157.579 174.414 158.18 174.741 159.099 174.741C160.028 174.741 160.62 174.414 160.62 173.929C160.62 173.424 160.028 173.108 159.099 173.108ZM159.099 175.33C157.695 175.33 156.765 174.793 156.765 173.929C156.765 173.044 157.695 172.507 159.099 172.507C160.504 172.507 161.433 173.044 161.433 173.929C161.433 174.793 160.504 175.33 159.099 175.33ZM158.613 177.911V176.5C157.737 176.521 156.903 176.531 156.142 176.531L156.037 175.878C157.864 175.878 160.176 175.868 162.204 175.636L162.257 176.205C161.338 176.331 160.398 176.405 159.479 176.458V177.911H158.613ZM158.349 181.019H164.147V181.662H157.494V179.608H162.975V178.849H157.473V178.228H163.819V180.198H158.349V181.019Z" fill="#B7B8C3"/>
<path d="M184.356 174.414H181.124L180.913 177.216H180.987C181.163 176.97 181.36 176.774 181.578 176.626C181.804 176.479 182.11 176.405 182.497 176.405C182.814 176.405 183.106 176.458 183.374 176.563C183.641 176.668 183.874 176.819 184.071 177.016C184.268 177.206 184.419 177.441 184.525 177.722C184.637 178.003 184.694 178.322 184.694 178.681C184.694 179.039 184.637 179.369 184.525 179.671C184.412 179.966 184.247 180.222 184.028 180.44C183.817 180.65 183.557 180.816 183.247 180.935C182.944 181.054 182.599 181.114 182.212 181.114C181.902 181.114 181.628 181.079 181.388 181.009C181.156 180.938 180.948 180.844 180.765 180.724C180.582 180.605 180.42 180.471 180.28 180.324C180.146 180.176 180.023 180.022 179.91 179.86L180.575 179.355C180.667 179.502 180.762 179.636 180.86 179.755C180.966 179.874 181.079 179.976 181.198 180.061C181.325 180.145 181.469 180.212 181.631 180.261C181.793 180.303 181.987 180.324 182.212 180.324C182.719 180.324 183.103 180.19 183.363 179.924C183.624 179.657 183.754 179.281 183.754 178.796V178.691C183.754 178.206 183.624 177.831 183.363 177.564C183.103 177.297 182.719 177.164 182.212 177.164C181.874 177.164 181.607 177.227 181.41 177.353C181.219 177.473 181.047 177.617 180.892 177.785L180.142 177.68L180.406 173.634H184.356V174.414Z" fill="#B7B8C3"/>
<path d="M190.994 176.816H192.874V172.328H193.739V177.88H192.874V177.385H190.994V176.816ZM189.019 173.108C188.1 173.108 187.499 173.424 187.499 173.929C187.499 174.414 188.1 174.741 189.019 174.741C189.948 174.741 190.54 174.414 190.54 173.929C190.54 173.424 189.948 173.108 189.019 173.108ZM189.019 175.33C187.615 175.33 186.685 174.793 186.685 173.929C186.685 173.044 187.615 172.507 189.019 172.507C190.424 172.507 191.353 173.044 191.353 173.929C191.353 174.793 190.424 175.33 189.019 175.33ZM188.533 177.911V176.5C187.657 176.521 186.823 176.531 186.062 176.531L185.957 175.878C187.784 175.878 190.096 175.868 192.124 175.636L192.177 176.205C191.258 176.331 190.318 176.405 189.399 176.458V177.911H188.533ZM188.269 181.019H194.067V181.662H187.414V179.608H192.895V178.849H187.393V178.228H193.739V180.198H188.269V181.019Z" fill="#B7B8C3"/>
<path d="M212.195 181.114C211.815 181.114 211.47 181.051 211.161 180.924C210.858 180.791 210.597 180.605 210.379 180.366C210.168 180.12 210.006 179.822 209.893 179.471C209.781 179.119 209.724 178.726 209.724 178.291C209.724 177.743 209.805 177.23 209.967 176.753C210.129 176.268 210.337 175.829 210.59 175.436C210.851 175.036 211.136 174.684 211.446 174.382C211.755 174.073 212.058 173.824 212.354 173.634H213.494C213.1 173.922 212.748 174.203 212.438 174.477C212.129 174.751 211.858 175.039 211.625 175.341C211.393 175.636 211.196 175.956 211.034 176.3C210.872 176.637 210.742 177.02 210.643 177.448L210.696 177.469C210.872 177.167 211.097 176.918 211.372 176.721C211.653 176.517 212.019 176.416 212.47 176.416C212.787 176.416 213.079 176.468 213.346 176.574C213.614 176.679 213.843 176.83 214.033 177.027C214.223 177.223 214.371 177.462 214.476 177.743C214.589 178.024 214.645 178.336 214.645 178.681C214.645 179.039 214.586 179.369 214.466 179.671C214.353 179.966 214.188 180.222 213.97 180.44C213.758 180.65 213.501 180.816 213.199 180.935C212.896 181.054 212.562 181.114 212.195 181.114ZM212.185 180.345C212.671 180.345 213.047 180.212 213.315 179.945C213.589 179.678 213.727 179.295 213.727 178.796V178.712C213.727 178.213 213.589 177.831 213.315 177.564C213.047 177.297 212.671 177.164 212.185 177.164C211.699 177.164 211.319 177.297 211.044 177.564C210.777 177.831 210.643 178.213 210.643 178.712V178.796C210.643 179.295 210.777 179.678 211.044 179.945C211.319 180.212 211.699 180.345 212.185 180.345Z" fill="#B7B8C3"/>
<path d="M220.914 176.816H222.794V172.328H223.659V177.88H222.794V177.385H220.914V176.816ZM218.939 173.108C218.02 173.108 217.419 173.424 217.419 173.929C217.419 174.414 218.02 174.741 218.939 174.741C219.868 174.741 220.46 174.414 220.46 173.929C220.46 173.424 219.868 173.108 218.939 173.108ZM218.939 175.33C217.535 175.33 216.605 174.793 216.605 173.929C216.605 173.044 217.535 172.507 218.939 172.507C220.344 172.507 221.273 173.044 221.273 173.929C221.273 174.793 220.344 175.33 218.939 175.33ZM218.453 177.911V176.5C217.577 176.521 216.743 176.531 215.982 176.531L215.877 175.878C217.704 175.878 220.016 175.868 222.044 175.636L222.097 176.205C221.178 176.331 220.238 176.405 219.319 176.458V177.911H218.453ZM218.189 181.019H223.987V181.662H217.334V179.608H222.815V178.849H217.313V178.228H223.659V180.198H218.189V181.019Z" fill="#B7B8C3"/>
<path d="M240.785 180.988L243.604 174.393H240.458V175.762H239.666V173.634H244.502V174.414L241.735 180.988H240.785Z" fill="#B7B8C3"/>
<path d="M250.834 176.816H252.714V172.328H253.579V177.88H252.714V177.385H250.834V176.816ZM248.859 173.108C247.94 173.108 247.339 173.424 247.339 173.929C247.339 174.414 247.94 174.741 248.859 174.741C249.788 174.741 250.38 174.414 250.38 173.929C250.38 173.424 249.788 173.108 248.859 173.108ZM248.859 175.33C247.455 175.33 246.525 174.793 246.525 173.929C246.525 173.044 247.455 172.507 248.859 172.507C250.264 172.507 251.193 173.044 251.193 173.929C251.193 174.793 250.264 175.33 248.859 175.33ZM248.373 177.911V176.5C247.497 176.521 246.663 176.531 245.902 176.531L245.797 175.878C247.624 175.878 249.936 175.868 251.964 175.636L252.017 176.205C251.098 176.331 250.158 176.405 249.239 176.458V177.911H248.373ZM248.109 181.019H253.907V181.662H247.254V179.608H252.735V178.849H247.233V178.228H253.579V180.198H248.109V181.019Z" fill="#B7B8C3"/>
<path d="M272.025 181.114C271.602 181.114 271.233 181.061 270.916 180.956C270.599 180.844 270.332 180.693 270.114 180.503C269.902 180.313 269.74 180.089 269.628 179.829C269.522 179.569 269.469 179.288 269.469 178.986C269.469 178.48 269.607 178.08 269.881 177.785C270.156 177.49 270.515 177.283 270.958 177.164V177.079C270.571 176.946 270.261 176.732 270.029 176.437C269.804 176.135 269.691 175.773 269.691 175.352C269.691 174.79 269.895 174.344 270.304 174.014C270.712 173.677 271.286 173.508 272.025 173.508C272.764 173.508 273.338 173.677 273.746 174.014C274.154 174.344 274.359 174.79 274.359 175.352C274.359 175.773 274.242 176.135 274.01 176.437C273.785 176.732 273.479 176.946 273.091 177.079V177.164C273.535 177.283 273.894 177.49 274.169 177.785C274.443 178.08 274.58 178.48 274.58 178.986C274.58 179.288 274.524 179.569 274.411 179.829C274.306 180.089 274.144 180.313 273.926 180.503C273.714 180.693 273.45 180.844 273.134 180.956C272.817 181.061 272.447 181.114 272.025 181.114ZM272.025 180.345C272.539 180.345 272.937 180.233 273.218 180.008C273.5 179.776 273.641 179.45 273.641 179.028V178.807C273.641 178.386 273.5 178.062 273.218 177.838C272.937 177.606 272.539 177.49 272.025 177.49C271.511 177.49 271.113 177.606 270.832 177.838C270.55 178.062 270.409 178.386 270.409 178.807V179.028C270.409 179.45 270.55 179.776 270.832 180.008C271.113 180.233 271.511 180.345 272.025 180.345ZM272.025 176.753C272.49 176.753 272.842 176.654 273.081 176.458C273.32 176.261 273.44 175.973 273.44 175.594V175.436C273.44 175.057 273.32 174.769 273.081 174.572C272.842 174.375 272.49 174.277 272.025 174.277C271.56 174.277 271.208 174.375 270.969 174.572C270.73 174.769 270.61 175.057 270.61 175.436V175.594C270.61 175.973 270.73 176.261 270.969 176.458C271.208 176.654 271.56 176.753 272.025 176.753Z" fill="#B7B8C3"/>
<path d="M280.754 176.816H282.634V172.328H283.499V177.88H282.634V177.385H280.754V176.816ZM278.779 173.108C277.86 173.108 277.259 173.424 277.259 173.929C277.259 174.414 277.86 174.741 278.779 174.741C279.708 174.741 280.3 174.414 280.3 173.929C280.3 173.424 279.708 173.108 278.779 173.108ZM278.779 175.33C277.375 175.33 276.445 174.793 276.445 173.929C276.445 173.044 277.375 172.507 278.779 172.507C280.184 172.507 281.113 173.044 281.113 173.929C281.113 174.793 280.184 175.33 278.779 175.33ZM278.293 177.911V176.5C277.417 176.521 276.583 176.531 275.822 176.531L275.717 175.878C277.544 175.878 279.856 175.868 281.884 175.636L281.937 176.205C281.018 176.331 280.078 176.405 279.159 176.458V177.911H278.293ZM278.029 181.019H283.827V181.662H277.174V179.608H282.655V178.849H277.153V178.228H283.499V180.198H278.029V181.019Z" fill="#B7B8C3"/>
<path d="M304.405 176.331C304.405 176.879 304.324 177.395 304.162 177.88C304.001 178.357 303.789 178.796 303.529 179.197C303.275 179.59 302.994 179.941 302.684 180.25C302.374 180.552 302.072 180.798 301.776 180.988H300.635C301.03 180.7 301.382 180.419 301.691 180.145C302.001 179.871 302.272 179.586 302.505 179.292C302.737 178.99 302.934 178.67 303.096 178.333C303.258 177.989 303.388 177.602 303.487 177.174L303.434 177.153C303.258 177.455 303.029 177.708 302.747 177.911C302.473 178.108 302.11 178.206 301.66 178.206C301.343 178.206 301.051 178.154 300.783 178.048C300.516 177.943 300.287 177.792 300.097 177.595C299.907 177.399 299.755 177.164 299.643 176.89C299.537 176.609 299.484 176.293 299.484 175.941C299.484 175.583 299.541 175.257 299.653 174.962C299.773 174.66 299.938 174.403 300.15 174.193C300.368 173.975 300.625 173.806 300.921 173.687C301.223 173.568 301.561 173.508 301.934 173.508C302.314 173.508 302.656 173.575 302.959 173.708C303.268 173.835 303.529 174.021 303.74 174.266C303.958 174.505 304.124 174.8 304.236 175.151C304.349 175.503 304.405 175.896 304.405 176.331ZM301.945 177.458C302.431 177.458 302.807 177.325 303.075 177.058C303.349 176.791 303.487 176.409 303.487 175.91V175.826C303.487 175.327 303.349 174.944 303.075 174.677C302.807 174.41 302.431 174.277 301.945 174.277C301.459 174.277 301.079 174.41 300.804 174.677C300.537 174.944 300.403 175.327 300.403 175.826V175.91C300.403 176.409 300.537 176.791 300.804 177.058C301.079 177.325 301.459 177.458 301.945 177.458Z" fill="#B7B8C3"/>
<path d="M310.674 176.816H312.554V172.328H313.419V177.88H312.554V177.385H310.674V176.816ZM308.699 173.108C307.78 173.108 307.178 173.424 307.178 173.929C307.178 174.414 307.78 174.741 308.699 174.741C309.628 174.741 310.22 174.414 310.22 173.929C310.22 173.424 309.628 173.108 308.699 173.108ZM308.699 175.33C307.295 175.33 306.365 174.793 306.365 173.929C306.365 173.044 307.295 172.507 308.699 172.507C310.104 172.507 311.033 173.044 311.033 173.929C311.033 174.793 310.104 175.33 308.699 175.33ZM308.213 177.911V176.5C307.337 176.521 306.503 176.531 305.742 176.531L305.637 175.878C307.464 175.878 309.776 175.868 311.804 175.636L311.857 176.205C310.938 176.331 309.998 176.405 309.079 176.458V177.911H308.213ZM307.949 181.019H313.747V181.662H307.094V179.608H312.575V178.849H307.073V178.228H313.419V180.198H307.949V181.019Z" fill="#B7B8C3"/>
<path d="M326.46 180.988V180.208H328.519V174.288H328.445L326.587 176.015L326.069 175.457L328.023 173.634H329.406V180.208H331.307V180.988H326.46Z" fill="#B7B8C3"/>
<path d="M335.031 181.114C334.151 181.114 333.507 180.78 333.098 180.113C332.697 179.446 332.496 178.512 332.496 177.311C332.496 176.11 332.697 175.176 333.098 174.509C333.507 173.842 334.151 173.508 335.031 173.508C335.911 173.508 336.551 173.842 336.953 174.509C337.361 175.176 337.565 176.11 337.565 177.311C337.565 178.512 337.361 179.446 336.953 180.113C336.551 180.78 335.911 181.114 335.031 181.114ZM335.031 180.345C335.319 180.345 335.566 180.285 335.77 180.166C335.974 180.046 336.14 179.878 336.266 179.66C336.393 179.443 336.485 179.186 336.541 178.891C336.604 178.596 336.636 178.27 336.636 177.911V176.711C336.636 176.352 336.604 176.026 336.541 175.731C336.485 175.436 336.393 175.179 336.266 174.962C336.14 174.744 335.974 174.576 335.77 174.456C335.566 174.337 335.319 174.277 335.031 174.277C334.742 174.277 334.496 174.337 334.292 174.456C334.087 174.576 333.922 174.744 333.795 174.962C333.669 175.179 333.574 175.436 333.51 175.731C333.454 176.026 333.426 176.352 333.426 176.711V177.911C333.426 178.27 333.454 178.596 333.51 178.891C333.574 179.186 333.669 179.443 333.795 179.66C333.922 179.878 334.087 180.046 334.292 180.166C334.496 180.285 334.742 180.345 335.031 180.345Z" fill="#B7B8C3"/>
<path d="M343.76 176.816H345.639V172.328H346.505V177.88H345.639V177.385H343.76V176.816ZM341.785 173.108C340.866 173.108 340.264 173.424 340.264 173.929C340.264 174.414 340.866 174.741 341.785 174.741C342.714 174.741 343.306 174.414 343.306 173.929C343.306 173.424 342.714 173.108 341.785 173.108ZM341.785 175.33C340.381 175.33 339.451 174.793 339.451 173.929C339.451 173.044 340.381 172.507 341.785 172.507C343.19 172.507 344.119 173.044 344.119 173.929C344.119 174.793 343.19 175.33 341.785 175.33ZM341.299 177.911V176.5C340.423 176.521 339.589 176.531 338.828 176.531L338.723 175.878C340.55 175.878 342.862 175.868 344.89 175.636L344.943 176.205C344.024 176.331 343.084 176.405 342.165 176.458V177.911H341.299ZM341.035 181.019H346.833V181.662H340.18V179.608H345.661V178.849H340.159V178.228H346.505V180.198H341.035V181.019Z" fill="#B7B8C3"/>
<path d="M356.38 180.988V180.208H358.439V174.288H358.366L356.507 176.015L355.99 175.457L357.943 173.634H359.326V180.208H361.227V180.988H356.38Z" fill="#B7B8C3"/>
<path d="M362.712 180.988V180.208H364.771V174.288H364.697L362.839 176.015L362.321 175.457L364.275 173.634H365.658V180.208H367.559V180.988H362.712Z" fill="#B7B8C3"/>
<path d="M373.68 176.816H375.559V172.328H376.425V177.88H375.559V177.385H373.68V176.816ZM371.705 173.108C370.786 173.108 370.184 173.424 370.184 173.929C370.184 174.414 370.786 174.741 371.705 174.741C372.634 174.741 373.226 174.414 373.226 173.929C373.226 173.424 372.634 173.108 371.705 173.108ZM371.705 175.33C370.301 175.33 369.371 174.793 369.371 173.929C369.371 173.044 370.301 172.507 371.705 172.507C373.11 172.507 374.039 173.044 374.039 173.929C374.039 174.793 373.11 175.33 371.705 175.33ZM371.219 177.911V176.5C370.343 176.521 369.509 176.531 368.748 176.531L368.643 175.878C370.47 175.878 372.782 175.868 374.81 175.636L374.863 176.205C373.944 176.331 373.004 176.405 372.085 176.458V177.911H371.219ZM370.955 181.019H376.753V181.662H370.1V179.608H375.581V178.849H370.079V178.228H376.425V180.198H370.955V181.019Z" fill="#B7B8C3"/>
<path d="M386.3 180.988V180.208H388.359V174.288H388.285L386.427 176.015L385.909 175.457L387.863 173.634H389.246V180.208H391.147V180.988H386.3Z" fill="#B7B8C3"/>
<path d="M397.331 180.988H392.495V180.082L394.902 177.869C395.247 177.553 395.536 177.22 395.768 176.869C396.001 176.51 396.117 176.152 396.117 175.794V175.668C396.117 175.26 396.004 174.93 395.779 174.677C395.554 174.424 395.212 174.298 394.755 174.298C394.529 174.298 394.332 174.33 394.163 174.393C393.994 174.456 393.846 174.544 393.72 174.656C393.6 174.769 393.498 174.902 393.413 175.057C393.336 175.204 393.273 175.366 393.223 175.541L392.431 175.236C392.502 175.018 392.597 174.807 392.717 174.604C392.843 174.393 392.998 174.207 393.181 174.045C393.371 173.884 393.597 173.754 393.857 173.655C394.125 173.557 394.438 173.508 394.797 173.508C395.156 173.508 395.476 173.561 395.758 173.666C396.039 173.771 396.275 173.919 396.465 174.108C396.655 174.298 396.8 174.523 396.898 174.783C397.004 175.043 397.057 175.33 397.057 175.647C397.057 175.934 397.014 176.201 396.93 176.447C396.853 176.693 396.743 176.928 396.603 177.153C396.462 177.371 396.289 177.585 396.085 177.796C395.888 178.006 395.673 178.217 395.441 178.428L393.456 180.208H397.331V180.988Z" fill="#B7B8C3"/>
<path d="M403.6 176.816H405.479V172.328H406.345V177.88H405.479V177.385H403.6V176.816ZM401.625 173.108C400.706 173.108 400.104 173.424 400.104 173.929C400.104 174.414 400.706 174.741 401.625 174.741C402.554 174.741 403.146 174.414 403.146 173.929C403.146 173.424 402.554 173.108 401.625 173.108ZM401.625 175.33C400.221 175.33 399.291 174.793 399.291 173.929C399.291 173.044 400.221 172.507 401.625 172.507C403.03 172.507 403.959 173.044 403.959 173.929C403.959 174.793 403.03 175.33 401.625 175.33ZM401.139 177.911V176.5C400.263 176.521 399.429 176.531 398.668 176.531L398.563 175.878C400.389 175.878 402.702 175.868 404.73 175.636L404.782 176.205C403.864 176.331 402.924 176.405 402.005 176.458V177.911H401.139ZM400.875 181.019H406.673V181.662H400.02V179.608H405.501V178.849H399.999V178.228H406.345V180.198H400.875V181.019Z" fill="#B7B8C3"/>
<path d="M66.9613 241.745V236.246H64.6592V233.991H66.9613V230.43H69.559V241.745H66.9613ZM66.391 238.921L64.9126 241.007C63.3709 240.312 62.3571 239.153 61.7235 237.72C61.0266 239.343 59.865 240.691 58.1331 241.471L56.6336 239.343C59.2947 238.1 60.3296 235.719 60.3296 233.485V231.168H63.033V233.485C63.033 235.677 63.9834 237.805 66.391 238.921ZM60.0973 244.947V242.756H73.4874V249.54H70.6995V244.947H60.0973ZM70.8474 230.114H73.4874V241.892H70.8474V230.114Z" fill="#373840"/>
<path d="M79.5683 239.301V242.925C82.1871 242.903 84.3203 242.798 86.7068 242.419L86.9603 244.652C84.1513 245.095 81.6591 245.158 78.3855 245.158H76.8016V231.737H85.7987V233.97H79.5683V237.13H85.144V239.301H79.5683ZM89.4524 230.093H92.2403V249.561H89.4524V239.174H86.1155V236.941H89.4524V230.093Z" fill="#373840"/>
<path d="M117.083 239.49V241.724H109.606V249.519H106.776V241.724H99.5108V239.49H111.76C112.246 237.025 112.288 235.129 112.288 233.464H101.517V231.231H115.013V232.98C115.013 234.792 115.013 236.772 114.527 239.49H117.083Z" fill="#373840"/>
<path d="M131.971 241.492V235.908H128.422V233.654H131.971V230.114H134.758V241.492H131.971ZM130.197 238.69L128.739 240.881C126.691 240.186 125.318 238.858 124.494 237.13C123.628 239.111 122.086 240.67 119.784 241.45L118.327 239.216C121.643 238.163 123.016 235.529 123.016 232.853V231.126H125.846V232.727C125.846 235.34 127.113 237.699 130.197 238.69ZM128.19 247.391C130.725 247.391 132.055 246.865 132.055 245.769C132.055 244.652 130.725 244.125 128.19 244.125C125.635 244.125 124.304 244.652 124.304 245.769C124.304 246.865 125.635 247.391 128.19 247.391ZM128.19 241.976C132.309 241.976 134.843 243.367 134.843 245.769C134.843 248.129 132.309 249.519 128.19 249.519C124.051 249.519 121.516 248.129 121.516 245.769C121.516 243.367 124.051 241.976 128.19 241.976Z" fill="#373840"/>
<path d="M70.08 335.496C70.08 333.557 71.656 331.985 73.6 331.985C75.544 331.985 77.12 333.557 77.12 335.496C77.12 337.436 75.544 339.008 73.6 339.008C71.656 339.008 70.08 337.436 70.08 335.496Z" fill="#1F4FD5"/>
<path d="M86.2262 333.828H88.127V331.226H89.0035V338.148H88.127V334.534H86.2262V333.828ZM86.7859 336.051L86.353 336.725C85.297 336.346 84.4838 335.556 84.072 334.587C83.6602 335.661 82.7942 336.536 81.6854 336.936L81.2314 336.262C82.6358 335.756 83.6179 334.503 83.6179 333.165V332.691H81.5059V331.985H86.5642V332.691H84.4838V333.154C84.4838 334.387 85.4131 335.567 86.7859 336.051ZM83.8186 339.749H89.2675V340.455H82.9421V337.537H83.8186V339.749Z" fill="#75767F"/>
<path d="M91.2625 332.238H95.6977C95.6977 334.966 94.4411 337.368 91.2942 338.906L90.8296 338.2C93.3745 336.989 94.6417 335.177 94.8213 332.933H91.2625V332.238ZM97.6091 331.216H98.475V340.665H97.6091V331.216Z" fill="#75767F"/>
<path d="M105.233 333.828H107.133V331.226H108.01V338.148H107.133V334.534H105.233V333.828ZM105.792 336.051L105.359 336.725C104.303 336.346 103.49 335.556 103.078 334.587C102.667 335.661 101.801 336.536 100.692 336.936L100.238 336.262C101.642 335.756 102.624 334.503 102.624 333.165V332.691H100.512V331.985H105.571V332.691H103.49V333.154C103.49 334.387 104.419 335.567 105.792 336.051ZM102.825 339.749H108.274V340.455H101.948V337.537H102.825V339.749Z" fill="#75767F"/>
<path d="M112.898 332.901V334.102C112.898 335.609 113.975 337.284 115.348 337.926L114.852 338.622C113.796 338.095 112.909 336.989 112.476 335.725C112.043 337.105 111.124 338.306 110.058 338.853L109.551 338.169C110.902 337.494 112.043 335.703 112.043 334.102V332.901H109.878V332.185H115V332.901H112.898ZM118.558 335.029V335.756H116.996V340.665H116.13V331.226H116.996V335.029H118.558Z" fill="#75767F"/>
<path d="M146.828 339.886H141.823V338.748L144.178 336.652C144.551 336.315 144.836 335.995 145.033 335.693C145.237 335.384 145.34 335.061 145.34 334.724V334.587C145.34 334.229 145.23 333.948 145.012 333.744C144.801 333.54 144.512 333.439 144.146 333.439C143.942 333.439 143.763 333.47 143.608 333.533C143.46 333.59 143.33 333.67 143.217 333.776C143.104 333.881 143.009 334.004 142.932 334.144C142.861 334.285 142.805 334.436 142.763 334.597L141.717 334.197C141.795 333.965 141.9 333.744 142.034 333.533C142.168 333.316 142.337 333.122 142.541 332.954C142.745 332.785 142.985 332.652 143.259 332.554C143.541 332.455 143.868 332.406 144.241 332.406C144.614 332.406 144.949 332.462 145.244 332.575C145.54 332.68 145.787 332.831 145.984 333.028C146.188 333.217 146.343 333.446 146.448 333.712C146.554 333.979 146.607 334.271 146.607 334.587C146.607 334.882 146.561 335.156 146.469 335.409C146.378 335.661 146.251 335.9 146.089 336.125C145.927 336.35 145.737 336.564 145.519 336.767C145.308 336.971 145.083 337.178 144.843 337.389L143.111 338.874H146.828V339.886Z" fill="#1F4FD5"/>
<path d="M152.949 339.886H147.944V338.748L150.299 336.652C150.672 336.315 150.957 335.995 151.154 335.693C151.358 335.384 151.46 335.061 151.46 334.724V334.587C151.46 334.229 151.351 333.948 151.133 333.744C150.922 333.54 150.633 333.439 150.267 333.439C150.063 333.439 149.883 333.47 149.728 333.533C149.581 333.59 149.45 333.67 149.338 333.776C149.225 333.881 149.13 334.004 149.053 334.144C148.982 334.285 148.926 334.436 148.884 334.597L147.838 334.197C147.916 333.965 148.021 333.744 148.155 333.533C148.289 333.316 148.458 333.122 148.662 332.954C148.866 332.785 149.105 332.652 149.38 332.554C149.661 332.455 149.989 332.406 150.362 332.406C150.735 332.406 151.069 332.462 151.365 332.575C151.661 332.68 151.907 332.831 152.104 333.028C152.309 333.217 152.463 333.446 152.569 333.712C152.675 333.979 152.727 334.271 152.727 334.587C152.727 334.882 152.682 335.156 152.59 335.409C152.499 335.661 152.372 335.9 152.21 336.125C152.048 336.35 151.858 336.564 151.64 336.767C151.429 336.971 151.203 337.178 150.964 337.389L149.232 338.874H152.949V339.886Z" fill="#1F4FD5"/>
<path d="M155.268 339.886L160.379 332.533H161.446L156.335 339.886H155.268ZM155.743 336.578C155.173 336.578 154.737 336.402 154.434 336.051C154.131 335.693 153.98 335.173 153.98 334.492C153.98 333.811 154.131 333.295 154.434 332.943C154.737 332.585 155.173 332.406 155.743 332.406C156.314 332.406 156.75 332.585 157.053 332.943C157.356 333.295 157.507 333.811 157.507 334.492C157.507 335.173 157.356 335.693 157.053 336.051C156.75 336.402 156.314 336.578 155.743 336.578ZM155.743 335.872C156.243 335.872 156.493 335.51 156.493 334.787V334.197C156.493 333.474 156.243 333.112 155.743 333.112C155.244 333.112 154.994 333.474 154.994 334.197V334.787C154.994 335.51 155.244 335.872 155.743 335.872ZM160.971 340.012C160.4 340.012 159.964 339.837 159.661 339.485C159.358 339.127 159.207 338.608 159.207 337.926C159.207 337.245 159.358 336.729 159.661 336.378C159.964 336.02 160.4 335.84 160.971 335.84C161.541 335.84 161.977 336.02 162.28 336.378C162.583 336.729 162.734 337.245 162.734 337.926C162.734 338.608 162.583 339.127 162.28 339.485C161.977 339.837 161.541 340.012 160.971 340.012ZM160.971 339.306C161.47 339.306 161.72 338.945 161.72 338.221V337.631C161.72 336.908 161.47 336.546 160.971 336.546C160.471 336.546 160.221 336.908 160.221 337.631V338.221C160.221 338.945 160.471 339.306 160.971 339.306Z" fill="#1F4FD5"/>
<path d="M184.48 335.496C184.48 333.557 186.056 331.985 188 331.985C189.944 331.985 191.52 333.557 191.52 335.496C191.52 337.436 189.944 339.008 188 339.008C186.056 339.008 184.48 337.436 184.48 335.496Z" fill="#1CADFF"/>
<path d="M198.916 332.027V333.723C198.916 335.44 199.993 337.157 201.365 337.81L200.859 338.495C199.781 337.958 198.916 336.831 198.483 335.503C198.071 336.904 197.194 338.095 196.128 338.664L195.6 337.979C196.972 337.294 198.05 335.472 198.05 333.723V332.027H198.916ZM202.538 331.216H203.404V340.676H202.538V335.124H200.341V334.418H202.538V331.216Z" fill="#75767F"/>
<path d="M211.988 331.216H212.854V340.676H211.988V331.216ZM205.641 332.016H206.497V334.513H209.242V332.016H210.098V338.39H205.641V332.016ZM206.497 335.198V337.684H209.242V335.198H206.497Z" fill="#75767F"/>
<path d="M222.769 335.967L222.378 336.683C220.942 336.357 219.464 335.345 218.862 333.955C218.26 335.335 216.781 336.346 215.356 336.683L214.965 335.967C216.623 335.64 218.408 334.218 218.408 332.606V331.879H219.316V332.606C219.316 334.218 221.111 335.651 222.769 335.967ZM214.606 338.685H223.191V339.401H214.606V338.685Z" fill="#75767F"/>
<path d="M231.047 339.844V338.622H226.707V339.844H231.047ZM231.047 337.947V336.746H231.913V340.539H225.852V336.746H226.707V337.947H231.047ZM226.696 335.314C227.636 335.314 228.312 334.703 228.312 333.839C228.312 332.975 227.636 332.375 226.696 332.375C225.757 332.375 225.081 332.975 225.081 333.839C225.081 334.703 225.757 335.314 226.696 335.314ZM231.037 331.226H231.913V336.293H231.037V334.176H229.115C228.946 335.293 227.995 336.03 226.696 336.03C225.281 336.03 224.257 335.145 224.257 333.839C224.257 332.543 225.281 331.658 226.696 331.658C227.974 331.658 228.925 332.375 229.104 333.47H231.037V331.226Z" fill="#75767F"/>
<path d="M256.445 339.886V338.896H258.515V333.396H258.43L256.719 335.219L255.991 334.566L257.87 332.533H259.687V338.896H261.482V339.886H256.445Z" fill="#1F4FD5"/>
<path d="M264.804 340.012C264.375 340.012 263.995 339.96 263.664 339.854C263.34 339.742 263.065 339.591 262.84 339.401C262.622 339.212 262.453 338.987 262.333 338.727C262.221 338.467 262.164 338.186 262.164 337.884C262.164 337.393 262.298 336.999 262.565 336.704C262.84 336.402 263.199 336.192 263.643 336.072V335.988C263.262 335.854 262.956 335.644 262.724 335.356C262.499 335.068 262.386 334.713 262.386 334.292C262.386 334.011 262.439 333.755 262.544 333.523C262.657 333.291 262.815 333.094 263.02 332.933C263.224 332.764 263.477 332.634 263.78 332.543C264.083 332.452 264.424 332.406 264.804 332.406C265.184 332.406 265.526 332.452 265.829 332.543C266.131 332.634 266.385 332.764 266.589 332.933C266.793 333.094 266.948 333.291 267.053 333.523C267.166 333.755 267.222 334.011 267.222 334.292C267.222 334.713 267.106 335.068 266.874 335.356C266.649 335.644 266.346 335.854 265.966 335.988V336.072C266.409 336.192 266.765 336.402 267.032 336.704C267.307 336.999 267.444 337.393 267.444 337.884C267.444 338.186 267.384 338.467 267.265 338.727C267.152 338.987 266.983 339.212 266.758 339.401C266.54 339.591 266.265 339.742 265.934 339.854C265.61 339.96 265.234 340.012 264.804 340.012ZM264.804 339.054C265.248 339.054 265.589 338.952 265.829 338.748C266.075 338.544 266.198 338.26 266.198 337.895V337.684C266.198 337.319 266.075 337.034 265.829 336.831C265.589 336.627 265.248 336.525 264.804 336.525C264.361 336.525 264.016 336.627 263.769 336.831C263.53 337.034 263.41 337.319 263.41 337.684V337.895C263.41 338.26 263.53 338.544 263.769 338.748C264.016 338.952 264.361 339.054 264.804 339.054ZM264.804 335.609C265.213 335.609 265.522 335.521 265.733 335.345C265.952 335.17 266.061 334.913 266.061 334.576V334.397C266.061 334.06 265.952 333.804 265.733 333.628C265.522 333.453 265.213 333.365 264.804 333.365C264.396 333.365 264.083 333.453 263.864 333.628C263.653 333.804 263.548 334.06 263.548 334.397V334.576C263.548 334.913 263.653 335.17 263.864 335.345C264.083 335.521 264.396 335.609 264.804 335.609Z" fill="#1F4FD5"/>
<path d="M269.668 339.886L274.779 332.533H275.846L270.735 339.886H269.668ZM270.143 336.578C269.573 336.578 269.137 336.402 268.834 336.051C268.531 335.693 268.38 335.173 268.38 334.492C268.38 333.811 268.531 333.295 268.834 332.943C269.137 332.585 269.573 332.406 270.143 332.406C270.714 332.406 271.15 332.585 271.453 332.943C271.756 333.295 271.907 333.811 271.907 334.492C271.907 335.173 271.756 335.693 271.453 336.051C271.15 336.402 270.714 336.578 270.143 336.578ZM270.143 335.872C270.643 335.872 270.893 335.51 270.893 334.787V334.197C270.893 333.474 270.643 333.112 270.143 333.112C269.644 333.112 269.394 333.474 269.394 334.197V334.787C269.394 335.51 269.644 335.872 270.143 335.872ZM275.371 340.012C274.8 340.012 274.364 339.837 274.061 339.485C273.758 339.127 273.607 338.608 273.607 337.926C273.607 337.245 273.758 336.729 274.061 336.378C274.364 336.02 274.8 335.84 275.371 335.84C275.941 335.84 276.377 336.02 276.68 336.378C276.983 336.729 277.134 337.245 277.134 337.926C277.134 338.608 276.983 339.127 276.68 339.485C276.377 339.837 275.941 340.012 275.371 340.012ZM275.371 339.306C275.87 339.306 276.12 338.945 276.12 338.221V337.631C276.12 336.908 275.87 336.546 275.371 336.546C274.871 336.546 274.621 336.908 274.621 337.631V338.221C274.621 338.945 274.871 339.306 275.371 339.306Z" fill="#1F4FD5"/>
<path d="M298.88 335.496C298.88 333.557 300.456 331.985 302.4 331.985C304.344 331.985 305.92 333.557 305.92 335.496C305.92 337.436 304.344 339.008 302.4 339.008C300.456 339.008 298.88 337.436 298.88 335.496Z" fill="#0AE0C6"/>
<path d="M310.792 335.135L310.485 334.45C312.164 334.271 313.685 333.449 313.727 332.396H310.792V331.7H317.793V332.396H314.847C314.889 333.449 316.41 334.271 318.089 334.45L317.782 335.135C316.23 334.945 314.804 334.26 314.287 333.228C313.759 334.26 312.344 334.945 310.792 335.135ZM314.276 339.97C315.755 339.97 316.642 339.601 316.642 338.938C316.642 338.285 315.755 337.905 314.276 337.905C312.788 337.905 311.911 338.285 311.911 338.938C311.911 339.601 312.788 339.97 314.276 339.97ZM314.276 337.231C316.293 337.231 317.518 337.842 317.518 338.938C317.518 340.044 316.293 340.655 314.276 340.655C312.249 340.655 311.035 340.044 311.035 338.938C311.035 337.842 312.249 337.231 314.276 337.231ZM310 335.714H318.564V336.409H310V335.714Z" fill="#75767F"/>
<path d="M324.371 336.367H326.43V331.226H327.296V338.358H326.43V337.052H324.371V336.367ZM322.101 337.747V335.609C321.182 335.651 320.305 335.661 319.545 335.661L319.429 334.956C320.643 334.945 322.143 334.934 323.632 334.829C323.822 333.797 323.854 333.028 323.864 332.49H320.295V331.795H324.709V332.153C324.709 332.68 324.709 333.565 324.508 334.755C324.867 334.724 325.237 334.692 325.575 334.639L325.638 335.261C324.783 335.419 323.864 335.503 322.967 335.567V337.747H322.101ZM321.689 339.749H327.528V340.455H320.833V337.579H321.689V339.749Z" fill="#75767F"/>
<path d="M370.845 339.886V338.896H372.915V333.396H372.83L371.119 335.219L370.391 334.566L372.27 332.533H374.087V338.896H375.882V339.886H370.845Z" fill="#1F4FD5"/>
<path d="M381.749 339.886H376.744V338.748L379.099 336.652C379.472 336.315 379.757 335.995 379.954 335.693C380.158 335.384 380.26 335.061 380.26 334.724V334.587C380.26 334.229 380.151 333.948 379.933 333.744C379.722 333.54 379.433 333.439 379.067 333.439C378.863 333.439 378.683 333.47 378.528 333.533C378.381 333.59 378.25 333.67 378.138 333.776C378.025 333.881 377.93 334.004 377.853 334.144C377.782 334.285 377.726 334.436 377.684 334.597L376.638 334.197C376.716 333.965 376.821 333.744 376.955 333.533C377.089 333.316 377.258 333.122 377.462 332.954C377.666 332.785 377.905 332.652 378.18 332.554C378.461 332.455 378.789 332.406 379.162 332.406C379.535 332.406 379.869 332.462 380.165 332.575C380.461 332.68 380.707 332.831 380.904 333.028C381.109 333.217 381.263 333.446 381.369 333.712C381.475 333.979 381.527 334.271 381.527 334.587C381.527 334.882 381.482 335.156 381.39 335.409C381.299 335.661 381.172 335.9 381.01 336.125C380.848 336.35 380.658 336.564 380.44 336.767C380.228 336.971 380.003 337.178 379.764 337.389L378.032 338.874H381.749V339.886Z" fill="#1F4FD5"/>
<path d="M384.068 339.886L389.179 332.533H390.246L385.135 339.886H384.068ZM384.543 336.578C383.973 336.578 383.537 336.402 383.234 336.051C382.931 335.693 382.78 335.173 382.78 334.492C382.78 333.811 382.931 333.295 383.234 332.943C383.537 332.585 383.973 332.406 384.543 332.406C385.114 332.406 385.55 332.585 385.853 332.943C386.156 333.295 386.307 333.811 386.307 334.492C386.307 335.173 386.156 335.693 385.853 336.051C385.55 336.402 385.114 336.578 384.543 336.578ZM384.543 335.872C385.043 335.872 385.293 335.51 385.293 334.787V334.197C385.293 333.474 385.043 333.112 384.543 333.112C384.044 333.112 383.794 333.474 383.794 334.197V334.787C383.794 335.51 384.044 335.872 384.543 335.872ZM389.771 340.012C389.2 340.012 388.764 339.837 388.461 339.485C388.158 339.127 388.007 338.608 388.007 337.926C388.007 337.245 388.158 336.729 388.461 336.378C388.764 336.02 389.2 335.84 389.771 335.84C390.341 335.84 390.777 336.02 391.08 336.378C391.383 336.729 391.534 337.245 391.534 337.926C391.534 338.608 391.383 339.127 391.08 339.485C390.777 339.837 390.341 340.012 389.771 340.012ZM389.771 339.306C390.27 339.306 390.52 338.945 390.52 338.221V337.631C390.52 336.908 390.27 336.546 389.771 336.546C389.271 336.546 389.021 336.908 389.021 337.631V338.221C389.021 338.945 389.271 339.306 389.771 339.306Z" fill="#1F4FD5"/>
<path d="M70.08 354.81C70.08 352.871 71.656 351.298 73.6 351.298C75.544 351.298 77.12 352.871 77.12 354.81C77.12 356.749 75.544 358.321 73.6 358.321C71.656 358.321 70.08 356.749 70.08 354.81Z" fill="#7436DA"/>
<path d="M85.4765 351.551C83.9875 351.551 83.0371 351.994 83.0371 352.742C83.0371 353.49 83.9875 353.921 85.4765 353.921C86.9654 353.921 87.9158 353.49 87.9158 352.742C87.9158 351.994 86.9654 351.551 85.4765 351.551ZM85.4765 354.617C83.449 354.617 82.1501 353.921 82.1501 352.742C82.1501 351.562 83.449 350.856 85.4765 350.856C87.504 350.856 88.8029 351.562 88.8029 352.742C88.8029 353.921 87.504 354.617 85.4765 354.617ZM83.1638 357.029V359.062H88.8134V359.768H82.2979V357.029H83.1638ZM81.1891 355.502H89.7533V356.197H81.1891V355.502Z" fill="#75767F"/>
<path d="M96.6587 353.806V356.165H95.835V350.708H96.6587V353.1H97.8625V350.529H98.6968V356.513H97.8625V353.806H96.6587ZM95.4549 351.657L95.4654 352.341H90.6501V351.657H92.6353V350.603H93.4907V351.657H95.4549ZM91.8222 354.448C91.8222 355.038 92.3185 355.428 93.0683 355.428C93.8075 355.428 94.3144 355.038 94.3144 354.448C94.3144 353.869 93.8075 353.479 93.0683 353.479C92.3185 353.479 91.8222 353.869 91.8222 354.448ZM95.0853 354.448C95.0853 355.438 94.2616 356.071 93.0683 356.071C91.875 356.071 91.0408 355.438 91.0408 354.448C91.0408 353.479 91.875 352.836 93.0683 352.836C94.2616 352.836 95.0853 353.479 95.0853 354.448ZM95.5816 359.305C97.0177 359.305 97.8837 358.947 97.8837 358.325C97.8837 357.693 97.0177 357.335 95.5816 357.335C94.1349 357.335 93.2689 357.693 93.2689 358.325C93.2689 358.947 94.1349 359.305 95.5816 359.305ZM95.5816 356.671C97.5563 356.671 98.7496 357.261 98.7496 358.325C98.7496 359.378 97.5563 359.968 95.5816 359.968C93.6069 359.968 92.4136 359.378 92.4136 358.325C92.4136 357.261 93.6069 356.671 95.5816 356.671Z" fill="#75767F"/>
<path d="M142.045 359.199V358.209H144.115V352.71H144.03L142.319 354.532L141.591 353.879L143.47 351.846H145.287V358.209H147.082V359.199H142.045Z" fill="#1F4FD5"/>
<path d="M150.404 359.326C149.947 359.326 149.549 359.242 149.211 359.073C148.873 358.897 148.595 358.648 148.377 358.325C148.158 358.002 147.997 357.605 147.891 357.135C147.785 356.664 147.733 356.127 147.733 355.523C147.733 354.926 147.785 354.392 147.891 353.921C147.997 353.444 148.158 353.044 148.377 352.721C148.595 352.397 148.873 352.152 149.211 351.983C149.549 351.808 149.947 351.72 150.404 351.72C151.319 351.72 151.992 352.053 152.421 352.721C152.858 353.388 153.076 354.322 153.076 355.523C153.076 356.724 152.858 357.658 152.421 358.325C151.992 358.992 151.319 359.326 150.404 359.326ZM150.404 358.314C150.658 358.314 150.872 358.265 151.048 358.167C151.231 358.062 151.379 357.914 151.492 357.725C151.605 357.535 151.685 357.31 151.735 357.05C151.784 356.783 151.809 356.488 151.809 356.165V354.88C151.809 354.557 151.784 354.266 151.735 354.006C151.685 353.739 151.605 353.511 151.492 353.321C151.379 353.131 151.231 352.987 151.048 352.889C150.872 352.784 150.658 352.731 150.404 352.731C150.151 352.731 149.933 352.784 149.749 352.889C149.573 352.987 149.429 353.131 149.317 353.321C149.204 353.511 149.123 353.739 149.074 354.006C149.024 354.266 149 354.557 149 354.88V356.165C149 356.488 149.024 356.783 149.074 357.05C149.123 357.31 149.204 357.535 149.317 357.725C149.429 357.914 149.573 358.062 149.749 358.167C149.933 358.265 150.151 358.314 150.404 358.314Z" fill="#1F4FD5"/>
<path d="M155.268 359.199L160.379 351.846H161.446L156.335 359.199H155.268ZM155.743 355.891C155.173 355.891 154.737 355.716 154.434 355.365C154.131 355.007 153.98 354.487 153.98 353.806C153.98 353.124 154.131 352.608 154.434 352.257C154.737 351.899 155.173 351.72 155.743 351.72C156.314 351.72 156.75 351.899 157.053 352.257C157.356 352.608 157.507 353.124 157.507 353.806C157.507 354.487 157.356 355.007 157.053 355.365C156.75 355.716 156.314 355.891 155.743 355.891ZM155.743 355.186C156.243 355.186 156.493 354.824 156.493 354.101V353.511C156.493 352.787 156.243 352.426 155.743 352.426C155.244 352.426 154.994 352.787 154.994 353.511V354.101C154.994 354.824 155.244 355.186 155.743 355.186ZM160.971 359.326C160.4 359.326 159.964 359.15 159.661 358.799C159.358 358.441 159.207 357.921 159.207 357.24C159.207 356.559 159.358 356.042 159.661 355.691C159.964 355.333 160.4 355.154 160.971 355.154C161.541 355.154 161.977 355.333 162.28 355.691C162.583 356.042 162.734 356.559 162.734 357.24C162.734 357.921 162.583 358.441 162.28 358.799C161.977 359.15 161.541 359.326 160.971 359.326ZM160.971 358.62C161.47 358.62 161.72 358.258 161.72 357.535V356.945C161.72 356.222 161.47 355.86 160.971 355.86C160.471 355.86 160.221 356.222 160.221 356.945V357.535C160.221 358.258 160.471 358.62 160.971 358.62Z" fill="#1F4FD5"/>
<path d="M184.48 354.81C184.48 352.871 186.056 351.298 188 351.298C189.944 351.298 191.52 352.871 191.52 354.81C191.52 356.749 189.944 358.321 188 358.321C186.056 358.321 184.48 356.749 184.48 354.81Z" fill="#16236B"/>
<path d="M196.159 351.551H200.595C200.595 354.28 199.338 356.682 196.191 358.22L195.726 357.514C198.271 356.302 199.539 354.49 199.718 352.246H196.159V351.551ZM202.506 350.529H203.372V359.979H202.506V350.529Z" fill="#75767F"/>
<path d="M210.425 353.163V350.782H211.249V359.494H210.425V356.229H208.714V355.523H210.425V353.858H208.862C208.419 355.449 207.394 356.871 205.599 357.935L205.092 357.324C207.13 356.113 208.144 354.417 208.292 352.436H205.515V351.73H209.147C209.147 352.215 209.105 352.689 209.021 353.163H210.425ZM212.326 350.529H213.15V359.968H212.326V350.529Z" fill="#75767F"/>
<path d="M264.825 359.326C264.417 359.326 264.051 359.259 263.727 359.126C263.41 358.992 263.139 358.803 262.914 358.557C262.696 358.304 262.527 358.002 262.407 357.651C262.287 357.3 262.228 356.903 262.228 356.46C262.228 355.927 262.309 355.424 262.47 354.954C262.632 354.483 262.84 354.051 263.093 353.658C263.347 353.265 263.629 352.917 263.938 352.615C264.255 352.306 264.565 352.05 264.868 351.846H266.452C266.036 352.148 265.663 352.44 265.332 352.721C265.001 353.001 264.713 353.289 264.466 353.584C264.22 353.879 264.012 354.192 263.843 354.522C263.681 354.852 263.555 355.214 263.463 355.607L263.537 355.628C263.614 355.481 263.702 355.344 263.801 355.217C263.907 355.084 264.026 354.968 264.16 354.87C264.301 354.771 264.459 354.694 264.635 354.638C264.811 354.582 265.015 354.554 265.248 354.554C265.557 354.554 265.843 354.606 266.103 354.712C266.371 354.817 266.599 354.971 266.789 355.175C266.987 355.372 267.138 355.611 267.244 355.891C267.356 356.172 267.413 356.485 267.413 356.829C267.413 357.201 267.349 357.542 267.222 357.851C267.103 358.153 266.93 358.413 266.705 358.63C266.48 358.848 266.205 359.02 265.881 359.147C265.565 359.266 265.213 359.326 264.825 359.326ZM264.825 358.357C265.255 358.357 265.589 358.244 265.829 358.019C266.068 357.788 266.188 357.451 266.188 357.008V356.861C266.188 356.418 266.068 356.085 265.829 355.86C265.589 355.628 265.255 355.512 264.825 355.512C264.396 355.512 264.061 355.628 263.822 355.86C263.583 356.085 263.463 356.418 263.463 356.861V357.008C263.463 357.451 263.583 357.788 263.822 358.019C264.061 358.244 264.396 358.357 264.825 358.357Z" fill="#1F4FD5"/>
<path d="M269.668 359.199L274.779 351.846H275.846L270.735 359.199H269.668ZM270.143 355.891C269.573 355.891 269.137 355.716 268.834 355.365C268.531 355.007 268.38 354.487 268.38 353.806C268.38 353.124 268.531 352.608 268.834 352.257C269.137 351.899 269.573 351.72 270.143 351.72C270.714 351.72 271.15 351.899 271.453 352.257C271.756 352.608 271.907 353.124 271.907 353.806C271.907 354.487 271.756 355.007 271.453 355.365C271.15 355.716 270.714 355.891 270.143 355.891ZM270.143 355.186C270.643 355.186 270.893 354.824 270.893 354.101V353.511C270.893 352.787 270.643 352.426 270.143 352.426C269.644 352.426 269.394 352.787 269.394 353.511V354.101C269.394 354.824 269.644 355.186 270.143 355.186ZM275.371 359.326C274.8 359.326 274.364 359.15 274.061 358.799C273.758 358.441 273.607 357.921 273.607 357.24C273.607 356.559 273.758 356.042 274.061 355.691C274.364 355.333 274.8 355.154 275.371 355.154C275.941 355.154 276.377 355.333 276.68 355.691C276.983 356.042 277.134 356.559 277.134 357.24C277.134 357.921 276.983 358.441 276.68 358.799C276.377 359.15 275.941 359.326 275.371 359.326ZM275.371 358.62C275.87 358.62 276.12 358.258 276.12 357.535V356.945C276.12 356.222 275.87 355.86 275.371 355.86C274.871 355.86 274.621 356.222 274.621 356.945V357.535C274.621 358.258 274.871 358.62 275.371 358.62Z" fill="#1F4FD5"/>
<path d="M298.88 354.81C298.88 352.871 300.456 351.298 302.4 351.298C304.344 351.298 305.92 352.871 305.92 354.81C305.92 356.749 304.344 358.321 302.4 358.321C300.456 358.321 298.88 356.749 298.88 354.81Z" fill="#FFBC39"/>
<path d="M313.073 351.225C314.551 351.225 315.607 352.12 315.607 353.447C315.607 354.764 314.551 355.67 313.073 355.67C311.605 355.67 310.538 354.764 310.538 353.447C310.538 352.12 311.605 351.225 313.073 351.225ZM313.073 351.962C312.101 351.962 311.383 352.562 311.383 353.447C311.383 354.322 312.101 354.933 313.073 354.933C314.055 354.933 314.762 354.322 314.762 353.447C314.762 352.562 314.055 351.962 313.073 351.962ZM316.853 350.529H317.719V360H316.853V350.529ZM310.169 357.925L310.063 357.198C311.784 357.198 314.16 357.187 316.23 356.871L316.304 357.514C314.171 357.904 311.879 357.925 310.169 357.925Z" fill="#75767F"/>
<path d="M322.755 356.313V358.104H324.92V356.313H322.755ZM325.775 358.104H328.099V358.81H319.492V358.104H321.9V356.313H320.569V353.395H326.187V351.93H320.548V351.225H327.032V354.09H321.425V355.607H327.254V356.313H325.775V358.104Z" fill="#75767F"/>
<path d="M334.064 352.984H335.933V350.54H336.81V356.165H335.933V353.69H334.064V352.984ZM334.592 355.133L334.159 355.807C333.103 355.428 332.29 354.648 331.878 353.679C331.477 354.775 330.601 355.66 329.492 356.081L329.038 355.396C330.453 354.88 331.424 353.605 331.424 352.246V351.92H329.312V351.225H334.371V351.92H332.29V352.246C332.29 353.458 333.219 354.648 334.592 355.133ZM333.684 359.305C335.11 359.305 335.976 358.904 335.976 358.22C335.976 357.535 335.11 357.124 333.684 357.124C332.259 357.124 331.393 357.535 331.393 358.22C331.393 358.904 332.259 359.305 333.684 359.305ZM333.684 356.46C335.627 356.46 336.842 357.103 336.842 358.22C336.842 359.336 335.627 359.979 333.684 359.979C331.741 359.979 330.527 359.336 330.527 358.22C330.527 357.103 331.741 356.46 333.684 356.46Z" fill="#75767F"/>
<path d="M346.271 350.54V355.396H345.405V350.54H346.271ZM342.585 354.227V351.741H339.85V354.227H342.585ZM343.43 351.056V354.912H339.006V351.056H343.43ZM341.012 359.189H346.598V359.874H340.167V357.503H345.415V356.545H340.135V355.87H346.271V358.146H341.012V359.189Z" fill="#75767F"/>
<path d="M379.827 359.199V357.767H376.406V356.745L379.394 351.846H380.957V356.829H381.96V357.767H380.957V359.199H379.827ZM377.42 356.829H379.827V352.931H379.753L377.42 356.829Z" fill="#1F4FD5"/>
<path d="M384.068 359.199L389.179 351.846H390.246L385.135 359.199H384.068ZM384.543 355.891C383.973 355.891 383.537 355.716 383.234 355.365C382.931 355.007 382.78 354.487 382.78 353.806C382.78 353.124 382.931 352.608 383.234 352.257C383.537 351.899 383.973 351.72 384.543 351.72C385.114 351.72 385.55 351.899 385.853 352.257C386.156 352.608 386.307 353.124 386.307 353.806C386.307 354.487 386.156 355.007 385.853 355.365C385.55 355.716 385.114 355.891 384.543 355.891ZM384.543 355.186C385.043 355.186 385.293 354.824 385.293 354.101V353.511C385.293 352.787 385.043 352.426 384.543 352.426C384.044 352.426 383.794 352.787 383.794 353.511V354.101C383.794 354.824 384.044 355.186 384.543 355.186ZM389.771 359.326C389.2 359.326 388.764 359.15 388.461 358.799C388.158 358.441 388.007 357.921 388.007 357.24C388.007 356.559 388.158 356.042 388.461 355.691C388.764 355.333 389.2 355.154 389.771 355.154C390.341 355.154 390.777 355.333 391.08 355.691C391.383 356.042 391.534 356.559 391.534 357.24C391.534 357.921 391.383 358.441 391.08 358.799C390.777 359.15 390.341 359.326 389.771 359.326ZM389.771 358.62C390.27 358.62 390.52 358.258 390.52 357.535V356.945C390.52 356.222 390.27 355.86 389.771 355.86C389.271 355.86 389.021 356.222 389.021 356.945V357.535C389.021 358.258 389.271 358.62 389.771 358.62Z" fill="#1F4FD5"/>
<path d="M56 276.678C56 274.738 57.576 273.166 59.52 273.166H175.68C177.624 273.166 179.2 274.738 179.2 276.678V290.724C179.2 292.663 177.624 294.235 175.68 294.235H59.52C57.576 294.235 56 292.663 56 290.724V276.678Z" fill="#1F4FD5"/>
<path d="M180.96 276.678C180.96 274.738 182.536 273.166 184.48 273.166H247.84C249.784 273.166 251.36 274.738 251.36 276.678V290.724C251.36 292.663 249.784 294.235 247.84 294.235H184.48C182.536 294.235 180.96 292.663 180.96 290.724V276.678Z" fill="#1CADFF"/>
<path d="M253.12 276.678C253.12 274.738 254.696 273.166 256.64 273.166H305.92C307.864 273.166 309.44 274.738 309.44 276.678V290.724C309.44 292.663 307.864 294.235 305.92 294.235H256.64C254.696 294.235 253.12 292.663 253.12 290.724V276.678Z" fill="#0AE0C6"/>
<path d="M311.2 276.678C311.2 274.738 312.776 273.166 314.72 273.166H349.92C351.864 273.166 353.44 274.738 353.44 276.678V290.724C353.44 292.663 351.864 294.235 349.92 294.235H314.72C312.776 294.235 311.2 292.663 311.2 290.724V276.678Z" fill="#7436DA"/>
<path d="M355.2 276.678C355.2 274.738 356.776 273.166 358.72 273.166H379.84C381.784 273.166 383.36 274.738 383.36 276.678V290.724C383.36 292.663 381.784 294.235 379.84 294.235H358.72C356.776 294.235 355.2 292.663 355.2 290.724V276.678Z" fill="#16236B"/>
<path d="M385.12 276.678C385.12 274.738 386.696 273.166 388.64 273.166H404.48C406.424 273.166 408 274.738 408 276.678V290.724C408 292.663 406.424 294.235 404.48 294.235H388.64C386.696 294.235 385.12 292.663 385.12 290.724V276.678Z" fill="#FFBC39"/>
</g>
<defs>
<clipPath id="clip0_3289_7354">
<rect width="352" height="360" fill="white" transform="translate(56)"/>
</clipPath>
</defs>
</svg>
