<svg width="80" height="80" viewBox="0 0 80 80" fill="none" xmlns="http://www.w3.org/2000/svg">
<g clip-path="url(#clip0_4779_11283)">
<path d="M55.3962 32.9434H24.6038C18.935 32.9434 14.3396 37.5388 14.3396 43.2075V63.7358C14.3396 69.4045 18.935 74 24.6038 74H55.3962C61.0649 74 65.6604 69.4045 65.6604 63.7358V43.2075C65.6604 37.5388 61.0649 32.9434 55.3962 32.9434Z" fill="#9CA8EA"/>
<path d="M40 6C30.8008 6 23.3208 13.48 23.3208 22.6792V32.9434H31.0189V22.6792C31.0189 17.7268 35.0476 13.6981 40 13.6981C44.9525 13.6981 48.9812 17.7268 48.9812 22.6792C48.9812 24.8026 50.7068 26.5283 52.8302 26.5283C54.9536 26.5283 56.6793 24.8026 56.6793 22.6792C56.6793 13.48 49.1993 6 40 6Z" fill="#E8EAFA"/>
<path d="M31.872 48.3394C33.112 48.3394 34.1173 46.9033 34.1173 45.1319C34.1173 43.3604 33.112 41.9243 31.872 41.9243C30.632 41.9243 29.6267 43.3604 29.6267 45.1319C29.6267 46.9033 30.632 48.3394 31.872 48.3394Z" fill="#E8EAFA"/>
<path d="M48.5512 48.3394C49.7912 48.3394 50.7965 46.9033 50.7965 45.1319C50.7965 43.3604 49.7912 41.9243 48.5512 41.9243C47.3112 41.9243 46.3059 43.3604 46.3059 45.1319C46.3059 46.9033 47.3112 48.3394 48.5512 48.3394Z" fill="#E8EAFA"/>
<path d="M40.5195 57.6798C36.3304 57.6798 33.2448 55.6847 33.0587 55.5564C32.1734 54.9662 31.9297 53.773 32.5199 52.8877C33.1036 52.0024 34.2968 51.7587 35.1821 52.3425C35.4067 52.4836 40.218 55.5243 45.3244 52.4643C46.2353 51.9191 47.4157 52.2141 47.9674 53.1251C48.5191 54.036 48.2176 55.2164 47.3067 55.7681C44.9202 57.1987 42.5916 57.6862 40.5259 57.6862L40.5195 57.6798Z" fill="#E8EAFA"/>
</g>
<defs>
<clipPath id="clip0_4779_11283">
<rect width="51.3208" height="68" fill="white" transform="translate(14.3396 6)"/>
</clipPath>
</defs>
</svg>
