<svg width="24" height="24" viewBox="0 0 24 24" fill="none" xmlns="http://www.w3.org/2000/svg">
<path d="M20.8963 2H3.10407C2.81478 2.0263 2.54636 2.16178 2.35337 2.37889C2.16039 2.596 2.05731 2.87845 2.06511 3.16883V20.8312C2.05731 21.1215 2.16039 21.404 2.35337 21.6211C2.54636 21.8382 2.81478 21.9737 3.10407 22H12.5846V14.2078H9.98719V11.2208H12.5846V9.01299C12.4997 8.05224 12.7906 7.096 13.396 6.34523C14.0015 5.59446 14.8744 5.10761 15.8313 4.98701H16.4807C17.2622 4.9655 18.0441 5.00894 18.8184 5.11688V7.84416H17.13C15.8313 7.84416 15.7015 8.49351 15.7015 9.27273V11.2208H18.6885L18.2989 14.2078H15.7015V21.8701H20.7664C21.0568 21.8779 21.3392 21.7749 21.5564 21.5819C21.7735 21.3889 21.9089 21.1205 21.9352 20.8312V3.03896C21.917 2.76942 21.8017 2.51561 21.6107 2.32458C21.4196 2.13355 21.1658 2.01823 20.8963 2Z" fill="#B3B3C1"/>
</svg>
