<svg width="16" height="16" viewBox="0 0 16 16" fill="none" xmlns="http://www.w3.org/2000/svg">
<path d="M13.3847 2.07692H11.2309V1H10.154V2.07692H5.84627V1H4.76934V2.07692H2.6155C2.02319 2.07692 1.53857 2.56154 1.53857 3.15385V13.9231C1.53857 14.5154 2.02319 15 2.6155 15H13.3847C13.977 15 14.4617 14.5154 14.4617 13.9231V3.15385C14.4617 2.56154 13.977 2.07692 13.3847 2.07692ZM13.3847 13.9231H2.6155V6.38462H13.3847V13.9231ZM13.3847 5.30769H2.6155V3.15385H4.76934V4.23077H5.84627V3.15385H10.154V4.23077H11.2309V3.15385H13.3847V5.30769Z" fill="currentColor"/>
</svg>
