<svg width="16" height="16" viewBox="0 0 16 16" fill="none" xmlns="http://www.w3.org/2000/svg">
<path d="M15.4286 14.2853H0.571429C0.419876 14.2853 0.274531 14.2251 0.167368 14.1179C0.0602039 14.0108 0 13.8654 0 13.7139V3.99958C0 3.84803 0.0602039 3.70268 0.167368 3.59552C0.274531 3.48836 0.419876 3.42815 0.571429 3.42815H4.26286L5.24 1.97101C5.29176 1.8924 5.36214 1.8278 5.44489 1.78294C5.52763 1.73808 5.62017 1.71435 5.71429 1.71387H10.2857C10.3798 1.71435 10.4724 1.73808 10.5551 1.78294C10.6379 1.8278 10.7082 1.8924 10.76 1.97101L11.7371 3.42815H15.4286C15.5801 3.42815 15.7255 3.48836 15.8326 3.59552C15.9398 3.70268 16 3.84803 16 3.99958V13.7139C16 13.8654 15.9398 14.0108 15.8326 14.1179C15.7255 14.2251 15.5801 14.2853 15.4286 14.2853ZM1.14286 13.1424H14.8571V4.57101H11.4286C11.3345 4.57052 11.2419 4.5468 11.1592 4.50194C11.0764 4.45708 11.0061 4.39247 10.9543 4.31387L9.97714 2.85672H6.02286L5.04571 4.31387C4.99395 4.39247 4.92357 4.45708 4.84083 4.50194C4.75809 4.5468 4.66555 4.57052 4.57143 4.57101H1.14286V13.1424Z" fill="#373840"/>
<path d="M7.99986 11.9997C7.32175 11.9997 6.65887 11.7986 6.09505 11.4219C5.53122 11.0452 5.09178 10.5097 4.83228 9.88321C4.57277 9.25672 4.50488 8.56735 4.63717 7.90227C4.76946 7.23719 5.096 6.62628 5.5755 6.14678C6.05499 5.66729 6.6659 5.34075 7.33098 5.20846C7.99606 5.07617 8.68543 5.14406 9.31192 5.40356C9.93841 5.66306 10.4739 6.10251 10.8506 6.66634C11.2274 7.23016 11.4284 7.89304 11.4284 8.57115C11.4284 9.48046 11.0672 10.3525 10.4242 10.9955C9.78125 11.6385 8.90918 11.9997 7.99986 11.9997ZM7.99986 6.28544C7.54779 6.28544 7.10587 6.41949 6.72999 6.67065C6.3541 6.92181 6.06114 7.27879 5.88814 7.69645C5.71514 8.11411 5.66987 8.57369 5.75807 9.01707C5.84626 9.46046 6.06395 9.86773 6.38362 10.1874C6.70328 10.5071 7.11056 10.7248 7.55394 10.8129C7.99733 10.9011 8.45691 10.8559 8.87457 10.6829C9.29223 10.5099 9.64921 10.2169 9.90036 9.84102C10.1515 9.46514 10.2856 9.02322 10.2856 8.57115C10.2856 7.96494 10.0448 7.38356 9.61611 6.95491C9.18745 6.52625 8.60607 6.28544 7.99986 6.28544Z" fill="#373840"/>
</svg>
