<svg width="16" height="16" viewBox="0 0 16 16" fill="none" xmlns="http://www.w3.org/2000/svg">
<path d="M13.7143 9.71442H12.5714V12.0001H10.2857V13.143H12.5714V15.4287H13.7143V13.143H16V12.0001H13.7143V9.71442Z" fill="white"/>
<path d="M14.8571 2.85725H8L6.05714 0.91439C5.82857 0.685819 5.54286 0.571533 5.25714 0.571533H1.14286C0.514286 0.571533 0 1.08582 0 1.71439V13.143C0 13.7715 0.514286 14.2858 1.14286 14.2858H9.14286V13.143H1.14286V1.71439H5.25714L7.2 3.65725L7.54286 4.0001H14.8571V8.57153H16V4.0001C16 3.37153 15.4857 2.85725 14.8571 2.85725Z" fill="white"/>
</svg>
