<svg width="24" height="24" viewBox="0 0 24 24" fill="none" xmlns="http://www.w3.org/2000/svg">
<path d="M21.1667 23.0002H2.83333C2.34726 22.9997 1.88124 22.8063 1.53753 22.4626C1.19383 22.1189 1.00051 21.6529 1 21.1668V7.41683C1.00051 6.93076 1.19383 6.46474 1.53753 6.12103C1.88124 5.77732 2.34726 5.58401 2.83333 5.5835H8.02763C8.4244 5.58414 8.81038 5.71273 9.12827 5.95016L12.3057 8.3335H21.1667C21.6527 8.33401 22.1188 8.52732 22.4625 8.87103C22.8062 9.21474 22.9995 9.68076 23 10.1668V21.1668C22.9995 21.6529 22.8062 22.1189 22.4625 22.4626C22.1188 22.8063 21.6527 22.9997 21.1667 23.0002ZM8.02763 7.41683H2.83196L2.83333 21.1668H21.1667V10.1668H11.6943L8.02763 7.41683Z" fill="#373840"/>
<path d="M22.9997 5.58333H13.5273L9.86063 2.83333H2.83301V1H9.86063C10.2574 1.00064 10.6434 1.12923 10.9613 1.36667L14.1387 3.75H22.9997V5.58333Z" fill="#373840"/>
</svg>
