<svg width="16" height="16" viewBox="0 0 16 16" fill="none" xmlns="http://www.w3.org/2000/svg">
<path d="M13.7142 9.71387H12.5714V11.9996H10.2856V13.1424H12.5714V15.4282H13.7142V13.1424H15.9999V11.9996H13.7142V9.71387Z" fill="#373840"/>
<path d="M14.8571 2.857H8L6.05714 0.914146C5.82857 0.685575 5.54286 0.571289 5.25714 0.571289H1.14286C0.514286 0.571289 0 1.08557 0 1.71415V13.1427C0 13.7713 0.514286 14.2856 1.14286 14.2856H9.14286V13.1427H1.14286V1.71415H5.25714L7.2 3.657L7.54286 3.99986H14.8571V8.57129H16V3.99986C16 3.37129 15.4857 2.857 14.8571 2.857Z" fill="#373840"/>
</svg>
