<svg width="16" height="16" viewBox="0 0 16 16" fill="none" xmlns="http://www.w3.org/2000/svg">
<path d="M8 0C6.41775 0 4.87103 0.469192 3.55544 1.34824C2.23985 2.22729 1.21447 3.47672 0.608967 4.93853C0.00346627 6.40034 -0.15496 8.00887 0.153721 9.56072C0.462403 11.1126 1.22433 12.538 2.34315 13.6569C3.46197 14.7757 4.88743 15.5376 6.43928 15.8463C7.99113 16.155 9.59966 15.9965 11.0615 15.391C12.5233 14.7855 13.7727 13.7602 14.6518 12.4446C15.5308 11.129 16 9.58225 16 8C16 5.87827 15.1571 3.84344 13.6569 2.34315C12.1566 0.842854 10.1217 0 8 0ZM8 14.8571C6.64379 14.8571 5.31803 14.455 4.19038 13.7015C3.06273 12.948 2.18383 11.8771 1.66483 10.6241C1.14583 9.37113 1.01003 7.99239 1.27462 6.66224C1.5392 5.33208 2.19228 4.11026 3.15127 3.15127C4.11026 2.19228 5.33209 1.5392 6.66224 1.27461C7.9924 1.01003 9.37114 1.14582 10.6241 1.66483C11.8771 2.18383 12.948 3.06272 13.7015 4.19037C14.455 5.31803 14.8571 6.64378 14.8571 8C14.8571 9.81863 14.1347 11.5628 12.8487 12.8487C11.5628 14.1347 9.81863 14.8571 8 14.8571Z" fill="#373840"/>
<path d="M7.99972 13.143C8.47311 13.143 8.85686 12.7592 8.85686 12.2859C8.85686 11.8125 8.47311 11.4287 7.99972 11.4287C7.52633 11.4287 7.14258 11.8125 7.14258 12.2859C7.14258 12.7592 7.52633 13.143 7.99972 13.143Z" fill="#373840"/>
<path d="M8.57116 3.42872H7.71401C7.37612 3.42796 7.0414 3.49396 6.72908 3.62292C6.41676 3.75188 6.13299 3.94126 5.89406 4.18019C5.65513 4.41912 5.46575 4.70289 5.33679 5.01521C5.20783 5.32753 5.14183 5.66225 5.14258 6.00015V6.28586H6.28544V6.00015C6.28544 5.62126 6.43595 5.2579 6.70386 4.98999C6.97177 4.72208 7.33513 4.57157 7.71401 4.57157H8.57116C8.95004 4.57157 9.3134 4.72208 9.58131 4.98999C9.84922 5.2579 9.99973 5.62126 9.99973 6.00015C9.99973 6.37903 9.84922 6.74239 9.58131 7.0103C9.3134 7.27821 8.95004 7.42872 8.57116 7.42872H7.4283V10.0001H8.57116V8.57157C9.25314 8.57157 9.90719 8.30066 10.3894 7.81842C10.8717 7.33618 11.1426 6.68213 11.1426 6.00015C11.1426 5.31816 10.8717 4.66411 10.3894 4.18187C9.90719 3.69964 9.25314 3.42872 8.57116 3.42872Z" fill="#373840"/>
</svg>
