<svg width="16" height="16" viewBox="0 0 16 16" fill="none" xmlns="http://www.w3.org/2000/svg">
<path d="M2.26114 11.4716L3.02382 10.7143C2.18872 9.96445 1.53258 9.03675 1.10379 7.99956C2.18647 5.29552 5.17318 3.19949 7.99989 3.19949C8.72731 3.2091 9.44814 3.33885 10.1333 3.5835L10.9599 2.75149C10.0227 2.35539 9.01734 2.14527 7.99989 2.13281C6.26147 2.19819 4.58031 2.77152 3.16419 3.78195C1.74807 4.79238 0.659068 6.19562 0.0317736 7.81823C-0.0105912 7.93541 -0.0105912 8.06372 0.0317736 8.1809C0.505512 9.43799 1.26935 10.5655 2.26114 11.4716Z" fill="#373840"/>
<path d="M5.86668 7.85616C5.90377 7.34507 6.12359 6.8644 6.48594 6.50205C6.84828 6.1397 7.32895 5.91989 7.84005 5.8828L8.80539 4.91212C8.26446 4.76969 7.69564 4.77154 7.15564 4.91748C6.61564 5.06343 6.12333 5.34838 5.7278 5.74391C5.33226 6.13945 5.04732 6.63176 4.90137 7.17175C4.75542 7.71175 4.75357 8.28057 4.896 8.82151L5.86668 7.85616Z" fill="#373840"/>
<path d="M15.9681 7.81864C15.3565 6.22566 14.2924 4.84634 12.9067 3.85058L15.4667 1.28521L14.7147 0.533203L0.533203 14.7147L1.28521 15.4667L4.00525 12.7467C5.218 13.4582 6.59411 13.844 7.99998 13.8667C9.73839 13.8014 11.4196 13.228 12.8357 12.2176C14.2518 11.2072 15.3408 9.80392 15.9681 8.18131C16.0105 8.06413 16.0105 7.93582 15.9681 7.81864ZM10.1333 7.99998C10.1311 8.37337 10.0309 8.73963 9.84272 9.06216C9.65457 9.38469 9.38505 9.65218 9.06112 9.8379C8.73718 10.0236 8.37017 10.1211 7.99677 10.1205C7.62337 10.1199 7.25666 10.0214 6.93329 9.83467L9.83467 6.93329C10.0264 7.25635 10.1294 7.62432 10.1333 7.99998ZM7.99998 12.8C6.88106 12.7805 5.78336 12.4914 4.79993 11.9574L6.15462 10.6027C6.7708 11.0302 7.51759 11.2278 8.26458 11.1608C9.01158 11.0938 9.71132 10.7666 10.2416 10.2363C10.772 9.70599 11.0992 9.00624 11.1661 8.25925C11.2331 7.51225 11.0356 6.76547 10.608 6.14928L12.1387 4.61859C13.3625 5.4586 14.3195 6.63218 14.8961 7.99998C13.8134 10.704 10.8267 12.8 7.99998 12.8Z" fill="#373840"/>
</svg>
