<svg width="16" height="16" viewBox="0 0 16 16" fill="none" xmlns="http://www.w3.org/2000/svg">
<path d="M8 4C7.80222 4 7.60888 3.94135 7.44443 3.83147C7.27998 3.72159 7.15181 3.56541 7.07612 3.38268C7.00043 3.19996 6.98063 2.99889 7.01922 2.80491C7.0578 2.61093 7.15304 2.43275 7.29289 2.29289C7.43275 2.15304 7.61093 2.0578 7.80491 2.01922C7.99889 1.98063 8.19996 2.00043 8.38268 2.07612C8.56541 2.15181 8.72159 2.27998 8.83147 2.44443C8.94135 2.60888 9 2.80222 9 3C9 3.26522 8.89464 3.51957 8.70711 3.70711C8.51957 3.89464 8.26522 4 8 4Z" fill="#373840"/>
<path d="M8.6998 14H7.2998V6H8.6998V14Z" fill="#373840"/>
</svg>
