<svg width="24" height="24" viewBox="0 0 24 24" fill="none" xmlns="http://www.w3.org/2000/svg">
<path d="M3.09786 21.4286L8.11857 12L13.8543 17.0993C14.0339 17.2588 14.2477 17.3751 14.4792 17.4391C14.7108 17.5031 14.9539 17.5132 15.19 17.4686C15.4282 17.424 15.6529 17.3249 15.8464 17.179C16.04 17.0332 16.1972 16.8445 16.3057 16.6279L20.6429 7.99286L19.2129 7.28571L14.8993 15.9286L9.16357 10.8293C8.98852 10.6665 8.77864 10.5458 8.54989 10.4763C8.32115 10.4069 8.07958 10.3906 7.84357 10.4286C7.6105 10.4672 7.38914 10.558 7.19598 10.694C7.00281 10.83 6.8428 11.0079 6.72786 11.2143L2.57143 19.0714V1H1V21.4286C1 21.8453 1.16556 22.245 1.46026 22.5397C1.75496 22.8344 2.15466 23 2.57143 23H23V21.4286H3.09786Z" fill="#373840"/>
</svg>
