<svg width="24" height="24" viewBox="0 0 24 24" fill="none" xmlns="http://www.w3.org/2000/svg">
<path d="M4.14272 23H13.5713C13.9879 22.9995 14.3873 22.8338 14.6819 22.5392C14.9765 22.2446 15.1422 21.8452 15.1427 21.4286V19.0714H13.5713V21.4286H4.14272V2.57143H13.5713V4.92857H15.1427V2.57143C15.1422 2.15481 14.9765 1.75539 14.6819 1.46079C14.3873 1.16619 13.9879 1.00048 13.5713 1H4.14272C3.7261 1.00048 3.32667 1.16619 3.03208 1.46079C2.73748 1.75539 2.57177 2.15481 2.57129 2.57143V21.4286C2.57177 21.8452 2.73748 22.2446 3.03208 22.5392C3.32667 22.8338 3.7261 22.9995 4.14272 23Z" fill="#373840"/>
<path d="M15.6027 15.6032L18.4203 12.7856H7.28516V11.2142H18.4203L15.6027 8.39664L16.7137 7.28564L21.428 11.9999L16.7137 16.7142L15.6027 15.6032Z" fill="#373840"/>
</svg>
