<svg width="16" height="16" viewBox="0 0 16 16" fill="none" xmlns="http://www.w3.org/2000/svg">
<path d="M15.0109 10.0927L13.5173 8.59913V6.6207C13.5155 5.2535 13.0069 3.93551 12.0897 2.9216C11.1725 1.90769 9.91196 1.26987 8.55178 1.13148V0H7.44833V1.13148C6.08815 1.26987 4.8276 1.90769 3.91042 2.9216C2.99324 3.93551 2.48458 5.2535 2.48281 6.6207V8.59913L0.989237 10.0927C0.885782 10.1962 0.827653 10.3365 0.827637 10.4828V12.1379C0.827637 12.2843 0.885765 12.4246 0.989233 12.5281C1.0927 12.6315 1.23303 12.6897 1.37936 12.6897H5.24144V13.1182C5.22947 13.8182 5.4762 14.4979 5.93434 15.0271C6.39247 15.5564 7.0298 15.898 7.7242 15.9865C8.10773 16.0246 8.49498 15.9819 8.86104 15.8613C9.2271 15.7407 9.56387 15.5449 9.84968 15.2863C10.1355 15.0278 10.364 14.7122 10.5206 14.36C10.6771 14.0079 10.7582 13.6268 10.7587 13.2414V12.6897H14.6208C14.7671 12.6897 14.9074 12.6315 15.0109 12.5281C15.1144 12.4246 15.1725 12.2843 15.1725 12.1379V10.4828C15.1725 10.3365 15.1143 10.1962 15.0109 10.0927ZM9.65523 13.2414C9.65523 13.6804 9.48085 14.1014 9.17044 14.4118C8.86004 14.7222 8.43904 14.8966 8.00006 14.8966C7.56108 14.8966 7.14008 14.7222 6.82967 14.4118C6.51927 14.1014 6.34488 13.6804 6.34488 13.2414V12.6897H9.65523V13.2414ZM14.069 11.5862H1.93109V10.7112L3.42461 9.21767C3.52808 9.11422 3.58623 8.97391 3.58626 8.8276V6.6207C3.58626 5.45009 4.05128 4.32742 4.87903 3.49967C5.70678 2.67192 6.82945 2.2069 8.00006 2.2069C9.17067 2.2069 10.2933 2.67192 11.1211 3.49967C11.9488 4.32742 12.4139 5.45009 12.4139 6.6207V8.8276C12.4139 8.97391 12.472 9.11422 12.5755 9.21767L14.069 10.7112V11.5862Z" fill="#373840"/>
</svg>
