<svg width="24" height="24" viewBox="0 0 24 24" fill="none" xmlns="http://www.w3.org/2000/svg">
<path d="M12 1C9.82441 1 7.69767 1.64514 5.88873 2.85383C4.07979 4.06253 2.66989 5.78049 1.83733 7.79048C1.00477 9.80047 0.786929 12.0122 1.21137 14.146C1.6358 16.2798 2.68345 18.2398 4.22183 19.7782C5.76021 21.3165 7.72022 22.3642 9.85401 22.7886C11.9878 23.2131 14.1995 22.9952 16.2095 22.1627C18.2195 21.3301 19.9375 19.9202 21.1462 18.1113C22.3549 16.3023 23 14.1756 23 12C23 9.08262 21.8411 6.28472 19.7782 4.22182C17.7153 2.15892 14.9174 1 12 1ZM21.1667 11.0833H12.9167V2.87917C15.0288 3.0806 17.0057 4.00849 18.5101 5.50459C20.0146 7.00069 20.9535 8.97235 21.1667 11.0833ZM11.4683 21.1667C9.14676 21.0587 6.95287 20.0729 5.33052 18.4088C3.70817 16.7446 2.77849 14.5264 2.72958 12.2028C2.68066 9.87927 3.51616 7.62386 5.06703 5.89292C6.61791 4.16199 8.76837 3.08475 11.0833 2.87917V11.1292C11.0833 11.6154 11.2765 12.0817 11.6203 12.4255C11.9641 12.7693 12.4304 12.9625 12.9167 12.9625H21.1667C20.9228 15.3179 19.7769 17.4875 17.969 19.0169C16.1611 20.5462 13.8316 21.3166 11.4683 21.1667Z" fill="#373840"/>
</svg>
