<svg width="14" height="16" viewBox="0 0 14 16" fill="none" xmlns="http://www.w3.org/2000/svg">
<g id="refresh">
<path id="Vector" d="M12.5173 9.37931C12.5173 10.4705 12.1937 11.5372 11.5875 12.4445C10.9813 13.3518 10.1196 14.059 9.11144 14.4766C8.1033 14.8942 6.99397 15.0034 5.92373 14.7905C4.85349 14.5777 3.87041 14.0522 3.09881 13.2806C2.32721 12.509 1.80174 11.5259 1.58886 10.4557C1.37597 9.38543 1.48523 8.2761 1.90282 7.26795C2.32041 6.25981 3.02757 5.39813 3.93487 4.79189C4.84218 4.18565 5.90888 3.86207 7.00009 3.86207H10.4109L8.4333 5.84022L9.20698 6.62069L12.5173 3.31034L9.20698 0L8.4333 0.780138L10.4126 2.75862H7.00009C5.69064 2.75862 4.4106 3.14692 3.32183 3.87441C2.23306 4.6019 1.38447 5.63591 0.883367 6.84568C0.382263 8.05545 0.251151 9.38665 0.506612 10.6709C0.762073 11.9552 1.39263 13.1349 2.31855 14.0608C3.24447 14.9868 4.42417 15.6173 5.70845 15.8728C6.99274 16.1282 8.32394 15.9971 9.53371 15.496C10.7435 14.9949 11.7775 14.1463 12.505 13.0576C13.2325 11.9688 13.6208 10.6888 13.6208 9.37931H12.5173Z" fill="#373840"/>
</g>
</svg>
