<svg width="16" height="16" viewBox="0 0 16 16" fill="none" xmlns="http://www.w3.org/2000/svg">
<path d="M14.3006 8.43552C14.3006 8.29226 14.3006 8.14899 14.3006 8C14.3006 7.85101 14.3006 7.70774 14.3006 7.55875L15.4009 6.59603C15.6037 6.41726 15.7368 6.17256 15.7766 5.90516C15.8165 5.63776 15.7605 5.36488 15.6186 5.13475L14.2662 2.84254C14.1658 2.66849 14.0213 2.52392 13.8473 2.42333C13.6733 2.32275 13.4759 2.2697 13.2749 2.26949C13.1503 2.26854 13.0264 2.28789 12.9081 2.3268L11.5156 2.7967C11.2752 2.63694 11.0244 2.49336 10.7649 2.36691L10.4727 0.922822C10.4203 0.658993 10.2767 0.421999 10.0672 0.253328C9.85767 0.0846577 9.59549 -0.00494324 9.32655 0.000210557H6.64467C6.37574 -0.00494324 6.11356 0.0846577 5.90403 0.253328C5.6945 0.421999 5.55098 0.658993 5.49857 0.922822L5.20632 2.36691C4.94497 2.49333 4.69227 2.6369 4.44989 2.7967L3.08603 2.30388C2.96643 2.27271 2.84258 2.2611 2.71928 2.26949C2.51829 2.2697 2.3209 2.32275 2.14689 2.42333C1.97289 2.52392 1.82839 2.66849 1.7279 2.84254L0.375499 5.13475C0.241741 5.36453 0.192037 5.63368 0.2349 5.89608C0.277763 6.15848 0.410525 6.39782 0.610449 6.5731L1.69352 7.56448C1.69352 7.70774 1.69352 7.85101 1.69352 8C1.69352 8.14899 1.69352 8.29226 1.69352 8.44125L0.610449 9.40398C0.404878 9.58047 0.268484 9.8241 0.225473 10.0916C0.182462 10.3591 0.235614 10.6332 0.375499 10.8653L1.7279 13.1575C1.82839 13.3315 1.97289 13.4761 2.14689 13.5767C2.3209 13.6772 2.51829 13.7303 2.71928 13.7305C2.84383 13.7315 2.9677 13.7121 3.08603 13.6732L4.47854 13.2033C4.71896 13.3631 4.96975 13.5066 5.22924 13.6331L5.52149 15.0772C5.5739 15.341 5.71743 15.578 5.92695 15.7467C6.13648 15.9153 6.39866 16.0049 6.6676 15.9998H9.3724C9.64133 16.0049 9.90351 15.9153 10.113 15.7467C10.3226 15.578 10.4661 15.341 10.5185 15.0772L10.8108 13.6331C11.0721 13.5067 11.3248 13.3631 11.5672 13.2033L12.954 13.6732C13.0723 13.7121 13.1962 13.7315 13.3207 13.7305C13.5217 13.7303 13.7191 13.6772 13.8931 13.5767C14.0671 13.4761 14.2116 13.3315 14.3121 13.1575L15.6186 10.8653C15.7524 10.6355 15.8021 10.3663 15.7592 10.1039C15.7164 9.84152 15.5836 9.60218 15.3837 9.4269L14.3006 8.43552ZM13.2749 12.5844L11.3093 11.9197C10.8492 12.3094 10.3233 12.6141 9.75634 12.8194L9.34947 14.8766H6.64467L6.23781 12.8423C5.67531 12.6312 5.15229 12.327 4.69057 11.9426L2.71928 12.5844L1.36688 10.2922L2.92557 8.91688C2.81962 8.32369 2.81962 7.71642 2.92557 7.12323L1.36688 5.7078L2.71928 3.41559L4.68484 4.08033C5.14496 3.6906 5.67083 3.38594 6.23781 3.18064L6.64467 1.12339H9.34947L9.75634 3.15772C10.3188 3.36885 10.8419 3.67298 11.3036 4.05741L13.2749 3.41559L14.6273 5.7078L13.0686 7.08312C13.1745 7.67631 13.1745 8.28358 13.0686 8.87677L14.6273 10.2922L13.2749 12.5844Z" fill="#373840"/>
<path d="M8.00032 11.4381C7.32029 11.4381 6.65552 11.2365 6.0901 10.8587C5.52467 10.4809 5.08398 9.94388 4.82374 9.31561C4.5635 8.68734 4.49541 7.99602 4.62808 7.32905C4.76075 6.66208 5.08821 6.04944 5.56907 5.56858C6.04992 5.08773 6.66257 4.76026 7.32954 4.62759C7.9965 4.49492 8.68783 4.56301 9.3161 4.82325C9.94437 5.08349 10.4814 5.52418 10.8592 6.08961C11.237 6.65504 11.4386 7.3198 11.4386 7.99983C11.4432 8.45263 11.3574 8.9018 11.1863 9.32103C11.0151 9.74026 10.762 10.1211 10.4418 10.4413C10.1216 10.7615 9.74075 11.0146 9.32152 11.1858C8.90229 11.3569 8.45312 11.4427 8.00032 11.4381ZM8.00032 5.70763C7.69737 5.70057 7.39614 5.75504 7.11485 5.86773C6.83356 5.98043 6.57805 6.14901 6.36377 6.36328C6.1495 6.57756 5.98092 6.83307 5.86822 7.11436C5.75552 7.39565 5.70106 7.69688 5.70811 7.99983C5.70106 8.30278 5.75552 8.60401 5.86822 8.8853C5.98092 9.16659 6.1495 9.4221 6.36377 9.63638C6.57805 9.85065 6.83356 10.0192 7.11485 10.1319C7.39614 10.2446 7.69737 10.2991 8.00032 10.292C8.30326 10.2991 8.60449 10.2446 8.88579 10.1319C9.16708 10.0192 9.42259 9.85065 9.63686 9.63638C9.85114 9.4221 10.0197 9.16659 10.1324 8.8853C10.2451 8.60401 10.2996 8.30278 10.2925 7.99983C10.2996 7.69688 10.2451 7.39565 10.1324 7.11436C10.0197 6.83307 9.85114 6.57756 9.63686 6.36328C9.42259 6.14901 9.16708 5.98043 8.88579 5.86773C8.60449 5.75504 8.30326 5.70057 8.00032 5.70763Z" fill="#373840"/>
</svg>
