<svg width="16" height="16" viewBox="0 0 16 16" fill="none" xmlns="http://www.w3.org/2000/svg">
<path d="M15.9682 7.81831C15.3409 6.19567 14.2519 4.79242 12.8358 3.78197C11.4196 2.77153 9.73844 2.19819 8 2.13281C6.26156 2.19819 4.58038 2.77153 3.16424 3.78197C1.7481 4.79242 0.659078 6.19567 0.031774 7.81831C-0.0105913 7.93549 -0.0105913 8.0638 0.031774 8.18098C0.659078 9.80362 1.7481 11.2069 3.16424 12.2173C4.58038 13.2278 6.26156 13.8011 8 13.8665C9.73844 13.8011 11.4196 13.2278 12.8358 12.2173C14.2519 11.2069 15.3409 9.80362 15.9682 8.18098C16.0106 8.0638 16.0106 7.93549 15.9682 7.81831ZM8 12.7998C5.17325 12.7998 2.1865 10.7037 1.1038 7.99965C2.1865 5.29557 5.17325 3.19951 8 3.19951C10.8267 3.19951 13.8135 5.29557 14.8962 7.99965C13.8135 10.7037 10.8267 12.7998 8 12.7998Z" fill="#373840"/>
<path d="M8.00039 4.7998C7.36747 4.7998 6.74876 4.98749 6.22251 5.33912C5.69626 5.69075 5.28609 6.19053 5.04389 6.77527C4.80168 7.36001 4.73831 8.00345 4.86178 8.6242C4.98526 9.24496 5.29004 9.81516 5.73758 10.2627C6.18512 10.7102 6.75532 11.015 7.37608 11.1385C7.99684 11.262 8.64027 11.1986 9.22501 10.9564C9.80975 10.7142 10.3095 10.304 10.6612 9.77777C11.0128 9.25152 11.2005 8.63281 11.2005 7.9999C11.2005 7.15118 10.8633 6.33722 10.2632 5.73709C9.66306 5.13696 8.8491 4.7998 8.00039 4.7998ZM8.00039 10.1333C7.57844 10.1333 7.16597 10.0082 6.81514 9.77375C6.4643 9.53933 6.19086 9.20614 6.02939 8.81631C5.86791 8.42648 5.82567 7.99753 5.90798 7.58369C5.9903 7.16985 6.19349 6.78972 6.49185 6.49136C6.79021 6.193 7.17034 5.98981 7.58418 5.90749C7.99802 5.82518 8.42697 5.86742 8.8168 6.0289C9.20663 6.19037 9.53982 6.46381 9.77424 6.81465C10.0087 7.16548 10.1338 7.57795 10.1338 7.9999C10.1338 8.56571 9.90901 9.10834 9.50892 9.50843C9.10883 9.90852 8.5662 10.1333 8.00039 10.1333Z" fill="#373840"/>
</svg>
