<svg width="16" height="16" viewBox="0 0 16 16" fill="none" xmlns="http://www.w3.org/2000/svg">
<path d="M15 14.2677L11.0892 10.3569C12.029 9.22876 12.4976 7.78171 12.3976 6.31682C12.2976 4.85193 11.6366 3.48199 10.5523 2.49198C9.46798 1.50197 8.04371 0.968117 6.57579 1.00147C5.10787 1.03483 3.70932 1.63283 2.67108 2.67108C1.63283 3.70932 1.03483 5.10787 1.00147 6.57579C0.968117 8.04371 1.50197 9.46798 2.49198 10.5523C3.48199 11.6366 4.85193 12.2976 6.31682 12.3976C7.78171 12.4976 9.22876 12.029 10.3569 11.0892L14.2677 15L15 14.2677ZM2.05401 6.71456C2.05401 5.79279 2.32734 4.89172 2.83945 4.1253C3.35156 3.35887 4.07944 2.76152 4.93105 2.40877C5.78265 2.05602 6.71973 1.96373 7.62379 2.14356C8.52785 2.32339 9.35829 2.76726 10.0101 3.41905C10.6619 4.07084 11.1057 4.90128 11.2856 5.80534C11.4654 6.70939 11.3731 7.64648 11.0204 8.49808C10.6676 9.34969 10.0703 10.0776 9.30383 10.5897C8.53741 11.1018 7.63634 11.3751 6.71456 11.3751C5.47893 11.3738 4.29429 10.8823 3.42057 10.0086C2.54684 9.13484 2.05538 7.9502 2.05401 6.71456Z" fill="#373840"/>
</svg>
