<svg width="32" height="32" viewBox="0 0 32 32" fill="transparency" xmlns="http://www.w3.org/2000/svg">
<g id="User">
<path id="Vector" d="M15.9999 6.85718C14.8698 6.85718 13.765 7.19232 12.8252 7.82021C11.8855 8.4481 11.1531 9.34055 10.7206 10.3847C10.2881 11.4288 10.175 12.5778 10.3954 13.6863C10.6159 14.7947 11.1602 15.8129 11.9593 16.6121C12.7585 17.4112 13.7767 17.9555 14.8851 18.1759C15.9936 18.3964 17.1425 18.2833 18.1867 17.8508C19.2308 17.4183 20.1233 16.6859 20.7512 15.7461C21.3791 14.8064 21.7142 13.7016 21.7142 12.5715C21.7142 11.0559 21.1122 9.60249 20.0405 8.53085C18.9689 7.45922 17.5155 6.85718 15.9999 6.85718Z" fill="#373840"/>
<path id="Vector_2" d="M16 0C12.8355 0 9.74207 0.938384 7.11088 2.69649C4.4797 4.45459 2.42894 6.95345 1.21793 9.87706C0.00693253 12.8007 -0.309921 16.0177 0.307443 19.1214C0.924806 22.2251 2.44866 25.0761 4.6863 27.3137C6.92394 29.5513 9.77487 31.0752 12.8786 31.6926C15.9823 32.3099 19.1993 31.9931 22.1229 30.7821C25.0466 29.5711 27.5454 27.5203 29.3035 24.8891C31.0616 22.2579 32 19.1645 32 16C31.9952 11.758 30.308 7.69112 27.3084 4.69157C24.3089 1.69202 20.242 0.00477931 16 0ZM25.1343 26.2009C25.1116 24.7018 24.5007 23.2716 23.4335 22.2185C22.3662 21.1655 20.9279 20.574 19.4286 20.5714H12.5714C11.0721 20.574 9.63383 21.1655 8.56655 22.2185C7.49926 23.2716 6.88844 24.7018 6.86572 26.2009C4.79322 24.3503 3.3317 21.9139 2.67467 19.2142C2.01765 16.5146 2.19612 13.679 3.18645 11.083C4.17678 8.48706 5.93226 6.2531 8.22043 4.67699C10.5086 3.10087 13.2215 2.25694 16 2.25694C18.7785 2.25694 21.4914 3.10087 23.7796 4.67699C26.0678 6.2531 27.8232 8.48706 28.8136 11.083C29.8039 13.679 29.9824 16.5146 29.3253 19.2142C28.6683 21.9139 27.2068 24.3503 25.1343 26.2009Z" fill="#373840"/>
</g>
</svg>
