<svg width="16" height="16" viewBox="0 0 16 16" fill="none" xmlns="http://www.w3.org/2000/svg">
<path d="M8 12C7.80222 12 7.60888 12.0586 7.44443 12.1685C7.27998 12.2784 7.15181 12.4346 7.07612 12.6173C7.00043 12.8 6.98063 13.0011 7.01922 13.1951C7.0578 13.3891 7.15304 13.5673 7.29289 13.7071C7.43275 13.847 7.61093 13.9422 7.80491 13.9808C7.99889 14.0194 8.19996 13.9996 8.38268 13.9239C8.56541 13.8482 8.72159 13.72 8.83147 13.5556C8.94135 13.3911 9 13.1978 9 13C9 12.7348 8.89464 12.4804 8.70711 12.2929C8.51957 12.1054 8.26522 12 8 12Z" fill="#373840"/>
<path d="M8.6998 2H7.2998V10H8.6998V2Z" fill="#373840"/>
</svg>
