<svg width="24" height="24" viewBox="0 0 24 24" fill="none" xmlns="http://www.w3.org/2000/svg">
<path d="M22 12C22 14.0093 22 15.3645 21.9533 16.1121C21.8598 17.9346 21.3458 19.3364 20.3178 20.3178C19.2897 21.2991 17.9346 21.8598 16.1122 21.9533C15.3645 22 13.9626 22 12 22C9.99065 22 8.63551 22 7.88785 21.9533C6.06542 21.8598 4.66355 21.3458 3.68224 20.3178C2.70093 19.3364 2.14019 17.9346 2.04673 16.1121C2 15.3645 2 13.9626 2 12C2 10.0374 2 8.63551 2.04673 7.88785C2.14019 6.06542 2.65421 4.66355 3.68224 3.68224C4.66355 2.70093 6.06542 2.14019 7.88785 2.04673C8.63551 2 10.0374 2 12 2C14.0093 2 15.3645 2 16.1122 2.04673C17.9346 2.14019 19.3364 2.65421 20.3178 3.68224C21.2991 4.71028 21.8598 6.06542 21.9533 7.88785C21.9533 8.63551 22 9.99065 22 12ZM12.9813 3.7757C12.3738 3.7757 12.0467 3.7757 12 3.7757C11.9533 3.7757 11.6262 3.7757 11.0187 3.7757C10.4112 3.7757 9.94393 3.7757 9.66355 3.7757C9.33645 3.7757 8.91589 3.7757 8.40187 3.82243C7.88785 3.82243 7.42056 3.86916 7.04673 3.96262C6.6729 4.00935 6.34579 4.1028 6.11215 4.19626C5.69159 4.38318 5.31776 4.61682 4.94393 4.94393C4.61682 5.27103 4.38318 5.64486 4.19626 6.11215C4.1028 6.34579 4.00935 6.6729 3.96262 7.04673C3.91589 7.42056 3.86916 7.84112 3.82243 8.40187C3.82243 8.91589 3.7757 9.33645 3.7757 9.66355C3.7757 9.99065 3.7757 10.4579 3.7757 11.0187C3.7757 11.6262 3.7757 11.9533 3.7757 12C3.7757 12.0467 3.7757 12.3738 3.7757 12.9813C3.7757 13.5888 3.7757 14.0561 3.7757 14.3364C3.7757 14.6636 3.7757 15.0841 3.82243 15.5981C3.82243 16.1121 3.86916 16.5794 3.96262 16.9533C4.05607 17.3271 4.1028 17.6542 4.19626 17.8879C4.38318 18.3084 4.61682 18.6822 4.94393 19.0561C5.27103 19.3832 5.64486 19.6168 6.11215 19.8037C6.34579 19.8972 6.6729 19.9907 7.04673 20.0374C7.42056 20.0841 7.84112 20.1308 8.40187 20.1776C8.96262 20.2243 9.33645 20.2243 9.66355 20.2243C9.99065 20.2243 10.4579 20.2243 11.0187 20.2243C11.6262 20.2243 11.9533 20.2243 12 20.2243C12.0467 20.2243 12.3738 20.2243 12.9813 20.2243C13.5888 20.2243 14.0561 20.2243 14.3364 20.2243C14.6636 20.2243 15.0841 20.2243 15.5981 20.1776C16.1122 20.1776 16.5794 20.1308 16.9533 20.0374C17.3271 19.9907 17.6542 19.8972 17.8879 19.8037C18.3084 19.6168 18.6822 19.3832 19.0561 19.0561C19.3832 18.729 19.6168 18.3551 19.8037 17.8879C19.8972 17.6542 19.9907 17.3271 20.0374 16.9533C20.0841 16.5794 20.1308 16.1589 20.1776 15.5981C20.1776 15.0841 20.2243 14.6636 20.2243 14.3364C20.2243 14.0093 20.2243 13.5421 20.2243 12.9813C20.2243 12.3738 20.2243 12.0467 20.2243 12C20.2243 11.9533 20.2243 11.6262 20.2243 11.0187C20.2243 10.4112 20.2243 9.94392 20.2243 9.66355C20.2243 9.33645 20.2243 8.91589 20.1776 8.40187C20.1776 7.88785 20.1308 7.42056 20.0374 7.04673C19.9907 6.6729 19.8972 6.34579 19.8037 6.11215C19.6168 5.69159 19.3832 5.31776 19.0561 4.94393C18.729 4.61682 18.3551 4.38318 17.8879 4.19626C17.6542 4.1028 17.3271 4.00935 16.9533 3.96262C16.5794 3.91589 16.1589 3.86916 15.5981 3.82243C15.0841 3.82243 14.6636 3.7757 14.3364 3.7757C14.0561 3.7757 13.5888 3.7757 12.9813 3.7757ZM15.5981 8.35514C16.5794 9.33645 17.0935 10.5514 17.0935 12C17.0935 13.4486 16.5794 14.6168 15.5981 15.6449C14.6168 16.6262 13.4019 17.1402 11.9533 17.1402C10.5047 17.1402 9.33645 16.6262 8.30841 15.6449C7.3271 14.6636 6.81308 13.4486 6.81308 12C6.81308 10.5514 7.3271 9.38318 8.30841 8.35514C9.28972 7.37383 10.5047 6.85981 11.9533 6.85981C13.4019 6.85981 14.6168 7.3271 15.5981 8.35514ZM14.3364 14.3364C14.9907 13.6822 15.3178 12.8878 15.3178 12C15.3178 11.1121 14.9907 10.271 14.3364 9.61682C13.6822 8.96262 12.8878 8.63551 11.9533 8.63551C11.0187 8.63551 10.2243 8.96262 9.57009 9.61682C8.91589 10.271 8.58878 11.0654 8.58878 12C8.58878 12.9346 8.91589 13.729 9.57009 14.3364C10.2243 14.9907 11.0187 15.3178 11.9533 15.3178C12.8878 15.3178 13.6822 14.9907 14.3364 14.3364ZM18.1682 5.78505C18.4019 6.01869 18.5421 6.29907 18.5421 6.62617C18.5421 6.95327 18.4019 7.23364 18.1682 7.46729C17.9346 7.70093 17.6542 7.84112 17.3271 7.84112C17 7.84112 16.7196 7.70093 16.486 7.46729C16.2523 7.23364 16.1122 6.95327 16.1122 6.62617C16.1122 6.29907 16.2523 6.01869 16.486 5.78505C16.7196 5.5514 17 5.41121 17.3271 5.41121C17.6542 5.41121 17.9346 5.5514 18.1682 5.78505Z" fill="#B3B3C1"/>
</svg>
