<svg width="24" height="24" viewBox="0 0 24 24" fill="none" xmlns="http://www.w3.org/2000/svg">
<path d="M6.19727 4.65524C6.19708 5.07296 6.07225 5.48111 5.83874 5.82746C5.60524 6.17381 5.27368 6.4426 4.88653 6.59942C4.49937 6.75624 4.07422 6.79396 3.6655 6.70775C3.25678 6.62154 2.88309 6.41532 2.59225 6.11549C2.30142 5.81566 2.10667 5.43586 2.03295 5.02471C1.95922 4.61355 2.00987 4.18975 2.17841 3.80755C2.34695 3.42534 2.62571 3.10213 2.97901 2.87928C3.33231 2.65643 3.74407 2.54408 4.1616 2.55661C4.7072 2.57298 5.22496 2.8013 5.60502 3.19311C5.98508 3.58492 6.19752 4.10939 6.19727 4.65524ZM6.26023 8.30687H2.06296V21.4443H6.26023V8.30687ZM12.8919 8.30687H8.71564V21.4443H12.8499V14.5503C12.8499 10.7098 17.8552 10.353 17.8552 14.5503V21.4443H22V13.1232C22 6.64895 14.5918 6.89029 12.8499 10.0697L12.8919 8.30687Z" fill="#B3B3C1"/>
</svg>
