<svg width="40" height="40" viewBox="0 0 40 40" fill="none" xmlns="http://www.w3.org/2000/svg">
<g opacity="0.8">
<path d="M30.2749 23.1391L28.0345 20.8987V17.931C28.0318 15.8802 27.2689 13.9033 25.8931 12.3824C24.5173 10.8615 22.6265 9.9048 20.5862 9.69722V8H18.931V9.69722C16.8908 9.9048 14.9999 10.8615 13.6242 12.3824C12.2484 13.9033 11.4854 15.8802 11.4828 17.931V20.8987L9.2424 23.1391C9.08722 23.2942 9.00002 23.5047 9 23.7242V26.2069C9 26.4264 9.08719 26.6369 9.24239 26.7921C9.3976 26.9473 9.6081 27.0345 9.82759 27.0345H15.6207V27.6774C15.6028 28.7272 15.9728 29.7468 16.6601 30.5407C17.3473 31.3346 18.3032 31.847 19.3448 31.9798C19.9201 32.0368 20.501 31.9729 21.0501 31.792C21.5992 31.6111 22.1043 31.3173 22.5331 30.9295C22.9618 30.5416 23.3046 30.0683 23.5394 29.5401C23.7742 29.0118 23.8959 28.4402 23.8966 27.8621V27.0345H29.6897C29.9092 27.0345 30.1197 26.9473 30.2749 26.7921C30.4301 26.6369 30.5173 26.4264 30.5173 26.2069V23.7242C30.5172 23.5047 30.43 23.2942 30.2749 23.1391ZM22.2414 27.8621C22.2414 28.5206 21.9798 29.1521 21.5142 29.6177C21.0486 30.0833 20.4171 30.3449 19.7586 30.3449C19.1002 30.3449 18.4687 30.0833 18.0031 29.6177C17.5374 29.1521 17.2759 28.5206 17.2759 27.8621V27.0345H22.2414V27.8621ZM28.8621 25.3793H10.6552V24.0669L12.8955 21.8265C13.0507 21.6713 13.1379 21.4609 13.1379 21.2414V17.931C13.1379 16.1751 13.8355 14.4911 15.0771 13.2495C16.3187 12.0079 18.0027 11.3103 19.7586 11.3103C21.5146 11.3103 23.1986 12.0079 24.4402 13.2495C25.6818 14.4911 26.3793 16.1751 26.3793 17.931V21.2414C26.3794 21.4609 26.4666 21.6713 26.6218 21.8265L28.8621 24.0669V25.3793Z" fill="white"/>
</g>
</svg>
