<svg width="40" height="40" viewBox="0 0 40 40" fill="none" xmlns="http://www.w3.org/2000/svg">
<rect width="40" height="40" rx="4" fill="white" fill-opacity="0.08"/>
<path d="M29.4509 20.6533C29.4509 20.4384 29.4509 20.2235 29.4509 20C29.4509 19.7765 29.4509 19.5616 29.4509 19.3381L31.1013 17.894C31.4055 17.6259 31.6051 17.2588 31.6649 16.8577C31.7247 16.4566 31.6407 16.0473 31.4279 15.7021L29.3993 12.2638C29.2486 12.0027 29.0318 11.7859 28.7708 11.635C28.5098 11.4841 28.2137 11.4045 27.9122 11.4042C27.7254 11.4028 27.5396 11.4318 27.3621 11.4902L25.2733 12.195C24.9127 11.9554 24.5365 11.74 24.1473 11.5504L23.7089 9.38423C23.6303 8.98849 23.415 8.633 23.1007 8.37999C22.7864 8.12699 22.3932 7.99259 21.9898 8.00032H17.967C17.5635 7.99259 17.1703 8.12699 16.856 8.37999C16.5417 8.633 16.3264 8.98849 16.2478 9.38423L15.8094 11.5504C15.4174 11.74 15.0383 11.9554 14.6748 12.195L12.629 11.4558C12.4496 11.4091 12.2638 11.3917 12.0789 11.4042C11.7774 11.4045 11.4813 11.4841 11.2203 11.635C10.9593 11.7859 10.7425 12.0027 10.5918 12.2638L8.56319 15.7021C8.36255 16.0468 8.28799 16.4505 8.35229 16.8441C8.41658 17.2377 8.61573 17.5967 8.91561 17.8597L10.5402 19.3467C10.5402 19.5616 10.5402 19.7765 10.5402 20C10.5402 20.2235 10.5402 20.4384 10.5402 20.6619L8.91561 22.106C8.60726 22.3707 8.40267 22.7361 8.33815 23.1374C8.27363 23.5387 8.35336 23.9498 8.56319 24.2979L10.5918 27.7362C10.7425 27.9973 10.9593 28.2141 11.2203 28.365C11.4813 28.5159 11.7774 28.5955 12.0789 28.5958C12.2657 28.5972 12.4515 28.5682 12.629 28.5098L14.7178 27.805C15.0784 28.0446 15.4546 28.26 15.8438 28.4496L16.2822 30.6158C16.3608 31.0115 16.5761 31.367 16.8904 31.62C17.2047 31.873 17.5979 32.0074 18.0013 31.9997H22.0585C22.4619 32.0074 22.8552 31.873 23.1695 31.62C23.4838 31.367 23.6991 31.0115 23.7777 30.6158L24.2161 28.4496C24.6081 28.26 24.9871 28.0446 25.3507 27.805L27.4309 28.5098C27.6084 28.5682 27.7942 28.5972 27.981 28.5958C28.2825 28.5955 28.5786 28.5159 28.8396 28.365C29.1006 28.2141 29.3173 27.9973 29.4681 27.7362L31.4279 24.2979C31.6285 23.9532 31.7031 23.5495 31.6388 23.1559C31.5745 22.7623 31.3754 22.4033 31.0755 22.1403L29.4509 20.6533ZM27.9122 26.8766L24.9639 25.8795C24.2737 26.4641 23.4849 26.9211 22.6344 27.229L22.0242 30.3149H17.967L17.3567 27.2634C16.5129 26.9467 15.7284 26.4905 15.0358 25.9139L12.0789 26.8766L10.0503 23.4383L12.3883 21.3753C12.2294 20.4855 12.2294 19.5746 12.3883 18.6848L10.0503 16.5617L12.0789 13.1234L15.0272 14.1205C15.7174 13.5359 16.5062 13.0789 17.3567 12.771L17.967 9.68509H22.0242L22.6344 12.7366C23.4782 13.0533 24.2627 13.5095 24.9553 14.0861L27.9122 13.1234L29.9408 16.5617L27.6028 18.6247C27.7617 19.5145 27.7617 20.4254 27.6028 21.3152L29.9408 23.4383L27.9122 26.8766Z" fill="white"/>
<path d="M20 25.1575C18.9799 25.1575 17.9828 24.855 17.1347 24.2883C16.2865 23.7216 15.6255 22.9161 15.2351 21.9737C14.8448 21.0313 14.7426 19.9943 14.9416 18.9938C15.1406 17.9934 15.6318 17.0744 16.3531 16.3531C17.0744 15.6319 17.9934 15.1407 18.9938 14.9417C19.9943 14.7427 21.0313 14.8448 21.9737 15.2352C22.9161 15.6255 23.7215 16.2865 24.2883 17.1347C24.855 17.9828 25.1574 18.98 25.1574 20C25.1643 20.6792 25.0356 21.353 24.7789 21.9818C24.5222 22.6107 24.1425 23.182 23.6622 23.6623C23.1819 24.1426 22.6106 24.5222 21.9818 24.7789C21.3529 25.0357 20.6792 25.1644 20 25.1575ZM20 16.5617C19.5456 16.5511 19.0937 16.6328 18.6718 16.8019C18.2498 16.9709 17.8666 17.2238 17.5452 17.5452C17.2238 17.8666 16.9709 18.2499 16.8018 18.6718C16.6328 19.0938 16.5511 19.5456 16.5617 20C16.5511 20.4544 16.6328 20.9063 16.8018 21.3282C16.9709 21.7502 17.2238 22.1334 17.5452 22.4548C17.8666 22.7762 18.2498 23.0291 18.6718 23.1982C19.0937 23.3672 19.5456 23.4489 20 23.4383C20.4544 23.4489 20.9063 23.3672 21.3282 23.1982C21.7501 23.0291 22.1334 22.7762 22.4548 22.4548C22.7762 22.1334 23.0291 21.7502 23.1981 21.3282C23.3672 20.9063 23.4489 20.4544 23.4383 20C23.4489 19.5456 23.3672 19.0938 23.1981 18.6718C23.0291 18.2499 22.7762 17.8666 22.4548 17.5452C22.1334 17.2238 21.7501 16.9709 21.3282 16.8019C20.9063 16.6328 20.4544 16.5511 20 16.5617Z" fill="white"/>
</svg>
