<svg width="24" height="24" viewBox="0 0 24 24" fill="none" xmlns="http://www.w3.org/2000/svg">
<path d="M23.4983 6.15338C23.3661 5.64348 23.1022 5.17729 22.7331 4.80155C22.3639 4.4258 21.9025 4.1537 21.395 4.01253C19.5171 3.48671 11.9928 3.48671 11.9928 3.48671C8.85537 3.449 5.7188 3.61629 2.60315 3.98749C2.0955 4.13898 1.63483 4.41735 1.26464 4.79631C0.894438 5.17527 0.626923 5.64232 0.487348 6.15338C0.150743 8.08382 -0.0126615 10.0405 -0.000915322 12C-0.013467 13.9596 0.149943 15.9163 0.487348 17.8466C0.624051 18.3563 0.890988 18.8217 1.26194 19.1971C1.63289 19.5724 2.09509 19.8448 2.60315 19.9875C4.50613 20.5133 11.9928 20.5133 11.9928 20.5133C15.1344 20.5511 18.2752 20.3838 21.395 20.0125C21.9025 19.8714 22.3639 19.5993 22.7331 19.2235C23.1022 18.8478 23.3661 18.3816 23.4983 17.8717C23.8435 15.9422 24.0111 13.9851 23.9991 12.025C24.025 10.0561 23.8572 8.08946 23.4983 6.15338ZM9.60159 15.6432V8.35682L15.8614 12L9.60159 15.6432Z" fill="#B3B3C1"/>
</svg>
