<svg width="192" height="192" viewBox="0 0 192 192" fill="none" xmlns="http://www.w3.org/2000/svg">
<rect width="192" height="192" fill="white"/>
<path fill-rule="evenodd" clip-rule="evenodd" d="M126.196 15C124.215 15 122.609 16.6059 122.609 18.587V61.6304C122.609 65.5925 119.397 68.8043 115.435 68.8043H72.3913C70.4103 68.8043 68.8044 70.4103 68.8044 72.3913V115.435C68.8044 119.397 65.5925 122.609 61.6304 122.609H18.587C16.6059 122.609 15 124.215 15 126.196V176.413C15 178.394 16.6059 180 18.587 180H68.8044C70.7854 180 72.3913 178.394 72.3913 176.413V133.37C72.3913 129.408 75.6032 126.196 79.5652 126.196H122.609C124.59 126.196 126.196 124.59 126.196 122.609V79.5652C126.196 75.6032 129.408 72.3913 133.37 72.3913H176.413C178.394 72.3913 180 70.7854 180 68.8043V18.587C180 16.6059 178.394 15 176.413 15H126.196ZM158.478 101.087C156.497 101.087 154.891 102.693 154.891 104.674V122.609C154.891 124.59 156.497 126.196 158.478 126.196H176.413C178.394 126.196 180 124.59 180 122.609V104.674C180 102.693 178.394 101.087 176.413 101.087H158.478ZM154.891 158.478C154.891 156.497 156.497 154.891 158.478 154.891H176.413C178.394 154.891 180 156.497 180 158.478V176.413C180 178.394 178.394 180 176.413 180H158.478C156.497 180 154.891 178.394 154.891 176.413V158.478ZM104.674 154.891C102.693 154.891 101.087 156.497 101.087 158.478V176.413C101.087 178.394 102.693 180 104.674 180H122.609C124.59 180 126.196 178.394 126.196 176.413V158.478C126.196 156.497 124.59 154.891 122.609 154.891H104.674Z" fill="#212229"/>
</svg>
