<svg width="512" height="512" viewBox="0 0 512 512" fill="none" xmlns="http://www.w3.org/2000/svg">
<rect width="512" height="512" fill="white"/>
<path fill-rule="evenodd" clip-rule="evenodd" d="M336.522 40C331.239 40 326.957 44.2825 326.957 49.5652V164.348C326.957 174.913 318.392 183.478 307.826 183.478H193.043C187.761 183.478 183.478 187.761 183.478 193.043V307.826C183.478 318.392 174.913 326.957 164.348 326.957H49.5652C44.2825 326.957 40 331.239 40 336.522V470.435C40 475.718 44.2825 480 49.5652 480H183.478C188.761 480 193.043 475.718 193.043 470.435V355.652C193.043 345.087 201.608 336.522 212.174 336.522H326.957C332.239 336.522 336.522 332.239 336.522 326.957V212.174C336.522 201.608 345.087 193.043 355.652 193.043H470.435C475.717 193.043 480 188.761 480 183.478V49.5652C480 44.2825 475.717 40 470.435 40H336.522ZM422.609 269.565C417.326 269.565 413.043 273.848 413.043 279.13V326.957C413.043 332.239 417.326 336.522 422.609 336.522H470.435C475.717 336.522 480 332.239 480 326.957V279.13C480 273.848 475.717 269.565 470.435 269.565H422.609ZM413.043 422.609C413.043 417.326 417.326 413.044 422.609 413.044H470.435C475.717 413.044 480 417.326 480 422.609V470.435C480 475.718 475.717 480 470.435 480H422.609C417.326 480 413.043 475.718 413.043 470.435V422.609ZM279.13 413.044C273.848 413.044 269.565 417.326 269.565 422.609V470.435C269.565 475.718 273.848 480 279.13 480H326.957C332.239 480 336.522 475.718 336.522 470.435V422.609C336.522 417.326 332.239 413.044 326.957 413.044H279.13Z" fill="#212229"/>
</svg>
