<svg width="180" height="180" viewBox="0 0 180 180" fill="none" xmlns="http://www.w3.org/2000/svg">
<rect width="180" height="180" fill="white"/>
<path fill-rule="evenodd" clip-rule="evenodd" d="M118.308 14.0625C116.451 14.0625 114.946 15.5681 114.946 17.4253V57.7785C114.946 61.4929 111.935 64.5041 108.22 64.5041H67.8668C66.0096 64.5041 64.5041 66.0096 64.5041 67.8668V108.22C64.5041 111.935 61.4929 114.946 57.7785 114.946H17.4253C15.5681 114.946 14.0625 116.451 14.0625 118.308V165.387C14.0625 167.244 15.5681 168.75 17.4253 168.75H64.5041C66.3613 168.75 67.8668 167.244 67.8668 165.387V125.034C67.8668 121.32 70.878 118.308 74.5924 118.308H114.946C116.803 118.308 118.308 116.803 118.308 114.946V74.5924C118.308 70.878 121.32 67.8668 125.034 67.8668H165.387C167.244 67.8668 168.75 66.3613 168.75 64.5041V17.4253C168.75 15.5681 167.244 14.0625 165.387 14.0625H118.308ZM148.573 94.769C146.716 94.769 145.211 96.2746 145.211 98.1318V114.946C145.211 116.803 146.716 118.308 148.573 118.308H165.387C167.244 118.308 168.75 116.803 168.75 114.946V98.1318C168.75 96.2746 167.244 94.769 165.387 94.769H148.573ZM145.211 148.573C145.211 146.716 146.716 145.211 148.573 145.211H165.387C167.244 145.211 168.75 146.716 168.75 148.573V165.387C168.75 167.244 167.244 168.75 165.387 168.75H148.573C146.716 168.75 145.211 167.244 145.211 165.387V148.573ZM98.1318 145.211C96.2746 145.211 94.769 146.716 94.769 148.573V165.387C94.769 167.244 96.2746 168.75 98.1318 168.75H114.946C116.803 168.75 118.308 167.244 118.308 165.387V148.573C118.308 146.716 116.803 145.211 114.946 145.211H98.1318Z" fill="#212229"/>
</svg>
