<svg width="16" height="16" viewBox="0 0 24 24" fill="none" xmlns="http://www.w3.org/2000/svg">
<path fill-rule="evenodd" clip-rule="evenodd" d="M16.1739 0C15.8858 0 15.6522 0.233591 15.6522 0.521739V6.78261C15.6522 7.35891 15.185 7.82609 14.6087 7.82609H8.34783C8.05968 7.82609 7.82609 8.05968 7.82609 8.34783V14.6087C7.82609 15.185 7.35891 15.6522 6.78261 15.6522H0.521739C0.233591 15.6522 0 15.8858 0 16.1739V23.4783C0 23.7664 0.233591 24 0.521739 24H7.82609C8.11424 24 8.34783 23.7664 8.34783 23.4783V17.2174C8.34783 16.6411 8.81501 16.1739 9.3913 16.1739H15.6522C15.9403 16.1739 16.1739 15.9403 16.1739 15.6522V9.3913C16.1739 8.81501 16.6411 8.34783 17.2174 8.34783H23.4783C23.7664 8.34783 24 8.11424 24 7.82609V0.521739C24 0.233591 23.7664 0 23.4783 0H16.1739ZM20.8696 12.5217C20.5814 12.5217 20.3478 12.7553 20.3478 13.0435V15.6522C20.3478 15.9403 20.5814 16.1739 20.8696 16.1739H23.4783C23.7664 16.1739 24 15.9403 24 15.6522V13.0435C24 12.7553 23.7664 12.5217 23.4783 12.5217H20.8696ZM20.3478 20.8696C20.3478 20.5814 20.5814 20.3478 20.8696 20.3478H23.4783C23.7664 20.3478 24 20.5814 24 20.8696V23.4783C24 23.7664 23.7664 24 23.4783 24H20.8696C20.5814 24 20.3478 23.7664 20.3478 23.4783V20.8696ZM13.0435 20.3478C12.7553 20.3478 12.5217 20.5814 12.5217 20.8696V23.4783C12.5217 23.7664 12.7553 24 13.0435 24H15.6522C15.9403 24 16.1739 23.7664 16.1739 23.4783V20.8696C16.1739 20.5814 15.9403 20.3478 15.6522 20.3478H13.0435Z" fill="#212229"/>
</svg>
