<svg width="127" height="24" viewBox="0 0 127 24" fill="none" xmlns="http://www.w3.org/2000/svg">
<path d="M36 20.7637V5.54357H46.7176V8.02511H39.194V11.9247H45.8422V14.3826H39.194V20.7637H36Z" fill="#B7B8C3"/>
<path d="M48.9107 7.50517V5H52.3886V7.50517H48.9107ZM49.171 20.7637V11.9247H47.4912L47.7751 9.5613H52.365V20.7637H49.171Z" fill="#B7B8C3"/>
<path d="M54.6113 20.7637V9.5613H57.5687L57.687 10.6248C58.1444 10.2782 58.7201 9.97883 59.4141 9.72674C60.1239 9.45889 60.8652 9.32496 61.6381 9.32496C63.1208 9.32496 64.2012 9.67159 64.8794 10.3648C65.5577 11.0581 65.8968 12.1295 65.8968 13.579V20.7637H62.7028V13.7445C62.7028 12.9882 62.545 12.4525 62.2296 12.1374C61.9299 11.8223 61.3621 11.6647 60.5261 11.6647C60.0372 11.6647 59.5403 11.775 59.0356 11.9956C58.5466 12.2162 58.1365 12.4919 57.8053 12.8227V20.7637H54.6113Z" fill="#B7B8C3"/>
<path d="M73.9714 21C72.0313 21 70.4935 20.5194 69.3579 19.5583C68.2222 18.5815 67.6544 17.1083 67.6544 15.1388C67.6544 13.3584 68.1276 11.9483 69.0739 10.9084C70.0361 9.85278 71.4635 9.32496 73.3563 9.32496C75.0913 9.32496 76.4162 9.78188 77.331 10.6957C78.2616 11.5938 78.7269 12.7755 78.7269 14.2408V16.2733H70.6118C70.7853 17.1713 71.1954 17.7858 71.8421 18.1167C72.5045 18.4476 73.4351 18.613 74.6339 18.613C75.2332 18.613 75.8405 18.5579 76.4556 18.4476C77.0865 18.3373 77.6228 18.1955 78.0645 18.0222V20.291C77.5439 20.5273 76.9367 20.7006 76.2427 20.8109C75.5487 20.937 74.7916 21 73.9714 21ZM70.6118 14.3117H75.9351V13.6972C75.9351 13.0512 75.7458 12.547 75.3673 12.1846C74.9888 11.8065 74.35 11.6174 73.4509 11.6174C72.3941 11.6174 71.6528 11.8301 71.2269 12.2555C70.8168 12.6809 70.6118 13.3663 70.6118 14.3117Z" fill="#B7B8C3"/>
<path d="M78.9295 20.7637L84.7497 5.54357H88.2512L94.0477 20.7637H90.7355L89.2922 17.1004H83.685L82.2654 20.7637H78.9295ZM84.1582 14.6425H88.8191L86.4768 8.52142L84.1582 14.6425Z" fill="#B7B8C3"/>
<path d="M95.3228 20.7637V9.5613H98.2802L98.3985 10.6248C98.8559 10.2782 99.4316 9.97883 100.126 9.72674C100.835 9.45889 101.577 9.32496 102.35 9.32496C103.832 9.32496 104.913 9.67159 105.591 10.3648C106.269 11.0581 106.608 12.1295 106.608 13.579V20.7637H103.414V13.7445C103.414 12.9882 103.256 12.4525 102.941 12.1374C102.641 11.8223 102.074 11.6647 101.238 11.6647C100.749 11.6647 100.252 11.775 99.747 11.9956C99.2581 12.2162 98.848 12.4919 98.5168 12.8227V20.7637H95.3228Z" fill="#B7B8C3"/>
<path d="M113.183 21C111.89 21 110.928 20.6613 110.297 19.9838C109.682 19.3063 109.374 18.3845 109.374 17.2186V12.0192H107.789V9.5613H109.374V7.15067L112.568 6.20532V9.5613H115.407L115.218 12.0192H112.568V17.0059C112.568 17.6204 112.71 18.0458 112.994 18.2821C113.278 18.5027 113.72 18.613 114.319 18.613C114.761 18.613 115.218 18.5342 115.691 18.3767V20.5746C115.344 20.7164 114.966 20.8188 114.556 20.8818C114.146 20.9606 113.688 21 113.183 21Z" fill="#B7B8C3"/>
<path d="M121.282 21C120.446 21 119.649 20.937 118.892 20.8109C118.135 20.7006 117.528 20.5588 117.07 20.3855V17.7386C117.622 17.9591 118.245 18.1324 118.939 18.2585C119.633 18.3688 120.272 18.4239 120.856 18.4239C121.644 18.4239 122.196 18.3767 122.512 18.2821C122.843 18.1876 123.009 17.9749 123.009 17.644C123.009 17.2659 122.756 16.9902 122.252 16.8168C121.763 16.6435 121.029 16.3993 120.051 16.0842C119.026 15.7376 118.237 15.32 117.685 14.8316C117.133 14.3432 116.857 13.6184 116.857 12.6573C116.857 11.5859 117.244 10.7666 118.017 10.1994C118.805 9.61645 120.067 9.32496 121.802 9.32496C122.496 9.32496 123.151 9.38011 123.766 9.4904C124.381 9.58493 124.901 9.7031 125.327 9.8449V12.4682C124.901 12.2634 124.412 12.1137 123.86 12.0192C123.308 11.9089 122.796 11.8538 122.323 11.8538C121.644 11.8538 121.1 11.901 120.69 11.9956C120.296 12.0901 120.099 12.2949 120.099 12.61C120.099 12.9567 120.312 13.2009 120.737 13.3427C121.179 13.4845 121.857 13.6972 122.772 13.9808C123.671 14.2486 124.373 14.5401 124.878 14.8552C125.382 15.1704 125.737 15.5485 125.942 15.9897C126.147 16.4151 126.25 16.9508 126.25 17.5968C126.25 19.8656 124.594 21 121.282 21Z" fill="#B7B8C3"/>
<path fill-rule="evenodd" clip-rule="evenodd" d="M16.1739 0C15.8858 0 15.6522 0.233591 15.6522 0.521739V6.78261C15.6522 7.35891 15.185 7.82609 14.6087 7.82609H8.34783C8.05968 7.82609 7.82609 8.05968 7.82609 8.34783V14.6087C7.82609 15.185 7.35891 15.6522 6.78261 15.6522H0.521739C0.233591 15.6522 0 15.8858 0 16.1739V23.4783C0 23.7664 0.233591 24 0.521739 24H7.82609C8.11424 24 8.34783 23.7664 8.34783 23.4783V17.2174C8.34783 16.6411 8.81501 16.1739 9.3913 16.1739H15.6522C15.9403 16.1739 16.1739 15.9403 16.1739 15.6522V9.3913C16.1739 8.81501 16.6411 8.34783 17.2174 8.34783H23.4783C23.7664 8.34783 24 8.11424 24 7.82609V0.521739C24 0.233591 23.7664 0 23.4783 0H16.1739ZM20.8696 12.5217C20.5814 12.5217 20.3478 12.7553 20.3478 13.0435V15.6522C20.3478 15.9403 20.5814 16.1739 20.8696 16.1739H23.4783C23.7664 16.1739 24 15.9403 24 15.6522V13.0435C24 12.7553 23.7664 12.5217 23.4783 12.5217H20.8696ZM20.3478 20.8696C20.3478 20.5814 20.5814 20.3478 20.8696 20.3478H23.4783C23.7664 20.3478 24 20.5814 24 20.8696V23.4783C24 23.7664 23.7664 24 23.4783 24H20.8696C20.5814 24 20.3478 23.7664 20.3478 23.4783V20.8696ZM13.0435 20.3478C12.7553 20.3478 12.5217 20.5814 12.5217 20.8696V23.4783C12.5217 23.7664 12.7553 24 13.0435 24H15.6522C15.9403 24 16.1739 23.7664 16.1739 23.4783V20.8696C16.1739 20.5814 15.9403 20.3478 15.6522 20.3478H13.0435Z" fill="#B7B8C3"/>
</svg>
