<svg width="24" height="24" viewBox="0 0 24 24" fill="none" xmlns="http://www.w3.org/2000/svg">
<path d="M20.8965 2H3.10431C2.81502 2.0263 2.5466 2.16178 2.35362 2.37889C2.16063 2.596 2.05756 2.87845 2.06535 3.16883V20.8312C2.05756 21.1215 2.16063 21.404 2.35362 21.6211C2.5466 21.8382 2.81502 21.9737 3.10431 22H12.5848V14.2078H9.98743V11.2208H12.5848V9.01299C12.5 8.05224 12.7908 7.096 13.3963 6.34523C14.0018 5.59446 14.8747 5.10761 15.8316 4.98701H16.4809C17.2624 4.9655 18.0443 5.00894 18.8186 5.11688V7.84416H17.1303C15.8316 7.84416 15.7017 8.49351 15.7017 9.27273V11.2208H18.6887L18.2991 14.2078H15.7017V21.8701H20.7667C21.057 21.8779 21.3395 21.7749 21.5566 21.5819C21.7737 21.3889 21.9092 21.1205 21.9355 20.8312V3.03896C21.9173 2.76942 21.8019 2.51561 21.6109 2.32458C21.4199 2.13355 21.1661 2.01823 20.8965 2Z" fill="#B7B8C3"/>
</svg>
