<svg width="24" height="24" viewBox="0 0 24 24" fill="none" xmlns="http://www.w3.org/2000/svg">
<path d="M23.4984 6.15338C23.3663 5.64348 23.1024 5.17729 22.7332 4.80155C22.3641 4.4258 21.9026 4.1537 21.3951 4.01253C19.5172 3.48671 11.9929 3.48671 11.9929 3.48671C8.85549 3.449 5.71892 3.61629 2.60328 3.98749C2.09563 4.13898 1.63496 4.41735 1.26476 4.79631C0.89456 5.17527 0.627045 5.64232 0.48747 6.15338C0.150865 8.08382 -0.0125395 10.0405 -0.000793252 12C-0.013345 13.9596 0.150065 15.9163 0.48747 17.8466C0.624173 18.3563 0.89111 18.8217 1.26206 19.1971C1.63301 19.5724 2.09522 19.8448 2.60328 19.9875C4.50625 20.5133 11.9929 20.5133 11.9929 20.5133C15.1346 20.5511 18.2753 20.3838 21.3951 20.0125C21.9026 19.8714 22.3641 19.5993 22.7332 19.2235C23.1024 18.8478 23.3663 18.3816 23.4984 17.8717C23.8436 15.9422 24.0112 13.9851 23.9992 12.025C24.0251 10.0561 23.8573 8.08946 23.4984 6.15338ZM9.60171 15.6432V8.35682L15.8615 12L9.60171 15.6432Z" fill="#B7B8C3"/>
</svg>
